RobotoSerifText-SuperCond 02r.ufo
<glyph name="nine" format="2">
  <advance width="471"/>
  <unicode hex="0039"/>
  <outline>
    <contour>
      <point x="51.0" y="-18.0" type="line"/>
      <point x="170.0" y="2.0"/>
      <point x="251.0" y="111.0"/>
      <point x="251.0" y="339.0" type="curve" smooth="yes"/>
      <point x="251.0" y="492.0"/>
      <point x="250.0" y="533.0"/>
      <point x="239.0" y="533.0" type="curve" smooth="yes"/>
      <point x="225.0" y="533.0"/>
      <point x="223.0" y="490.0"/>
      <point x="223.0" y="393.0" type="curve" smooth="yes"/>
      <point x="223.0" y="311.0"/>
      <point x="221.0" y="263.0"/>
      <point x="245.0" y="263.0" type="curve" smooth="yes"/>
      <point x="257.0" y="263.0"/>
      <point x="270.0" y="298.0"/>
      <point x="285.0" y="347.0" type="curve"/>
      <point x="288.0" y="275.0" type="line"/>
      <point x="276.0" y="228.0"/>
      <point x="251.0" y="177.0"/>
      <point x="179.0" y="177.0" type="curve" smooth="yes"/>
      <point x="78.0" y="177.0"/>
      <point x="9.0" y="249.0"/>
      <point x="9.0" y="387.0" type="curve" smooth="yes"/>
      <point x="9.0" y="530.0"/>
      <point x="97.0" y="619.0"/>
      <point x="233.0" y="619.0" type="curve" smooth="yes"/>
      <point x="383.0" y="619.0"/>
      <point x="462.0" y="530.0"/>
      <point x="462.0" y="331.0" type="curve" smooth="yes"/>
      <point x="462.0" y="91.0"/>
      <point x="299.0" y="-77.0"/>
      <point x="64.0" y="-104.0" type="curve"/>
    </contour>
  </outline>
</glyph>
<glyph name="less" format="2">
  <advance width="471"/>
  <unicode hex="003C"/>
  <outline>
    <contour>
      <point x="400.0" y="586.0" type="line"/>
      <point x="71.0" y="410.0" type="line"/>
      <point x="71.0" y="337.0" type="line"/>
      <point x="89.0" y="289.0" type="line"/>
      <point x="400.0" y="451.0" type="line"/>
    </contour>
    <contour>
      <point x="400.0" y="249.0" type="line"/>
      <point x="90.0" y="410.0" type="line"/>
      <point x="71.0" y="355.0" type="line"/>
      <point x="71.0" y="280.0" type="line"/>
      <point x="400.0" y="104.0" type="line"/>
    </contour>
  </outline>
</glyph>
<glyph name="R" format="2">
  <advance width="645"/>
  <unicode hex="0052"/>
  <anchor x="390.0" y="741" name="top"/>
  <anchor x="390.0" y="0" name="bottom"/>
  <outline>
    <contour>
      <point x="309.0" y="309.0" type="line"/>
      <point x="525.0" y="356.0" type="line"/>
      <point x="603" y="97" type="line" smooth="yes"/>
      <point x="607" y="83"/>
      <point x="613" y="77"/>
      <point x="627.0" y="77.0" type="curve" smooth="yes"/>
      <point x="634.0" y="77.0" type="line"/>
      <point x="634.0" y="0.0" type="line"/>
      <point x="379.0" y="1.0" type="line"/>
    </contour>
    <contour>
      <point x="289.0" y="87.0" type="line" smooth="yes"/>
      <point x="289.0" y="80.0"/>
      <point x="300.0" y="77.0"/>
      <point x="313.0" y="77.0" type="curve" smooth="yes"/>
      <point x="320.0" y="77.0" type="line"/>
      <point x="320.0" y="0.0" type="line"/>
      <point x="14.0" y="0.0" type="line"/>
      <point x="14.0" y="77.0" type="line"/>
      <point x="26.0" y="77.0" type="line"/>
      <point x="41.0" y="77.0"/>
      <point x="52.0" y="82.0"/>
      <point x="52.0" y="103.0" type="curve" smooth="yes"/>
      <point x="52.0" y="607.0" type="line" smooth="yes"/>
      <point x="52.0" y="628.0"/>
      <point x="41.0" y="633.0"/>
      <point x="26.0" y="633.0" type="curve"/>
      <point x="14.0" y="633.0" type="line"/>
      <point x="14.0" y="710.0" type="line"/>
      <point x="370" y="710" type="line" smooth="yes"/>
      <point x="536" y="710"/>
      <point x="603.0" y="648"/>
      <point x="603.0" y="503.0" type="curve" smooth="yes"/>
      <point x="603" y="384"/>
      <point x="540" y="318"/>
      <point x="428.0" y="307.0" type="curve"/>
      <point x="402" y="305"/>
      <point x="361.0158305462653" y="281.0"/>
      <point x="360.0" y="281.0" type="curve" smooth="yes"/>
      <point x="272.0" y="281.0" type="line"/>
      <point x="272.0" y="364.0" type="line"/>
      <point x="314.0" y="364.0" type="line" smooth="yes"/>
      <point x="346.0" y="364.0"/>
      <point x="367" y="386"/>
      <point x="367.0" y="502.0" type="curve" smooth="yes"/>
      <point x="367" y="608"/>
      <point x="347.0" y="624.0"/>
      <point x="319.0" y="624.0" type="curve" smooth="yes"/>
      <point x="289.0" y="624.0" type="line"/>
    </contour>
  </outline>
</glyph>
<glyph name="a" format="2">
  <advance width="537"/>
  <unicode hex="0061"/>
  <anchor x="242" y="513" name="top"/>
  <anchor x="424" y="-10" name="right"/>
  <anchor x="275" y="0" name="bottom"/>
  <outline>
    <contour>
      <point x="288.0" y="308.0" type="line" identifier="MwotyBKBYW"/>
      <point x="95.0" y="276.0" identifier="ADutzO7aMC"/>
      <point x="10" y="238" identifier="R5zv71351H"/>
      <point x="10.0" y="127.0" type="curve" smooth="yes" identifier="A5DHpmAEg8"/>
      <point x="10.0" y="31" identifier="Z5MQYep754"/>
      <point x="52" y="-10.0" identifier="EreojKd8x0"/>
      <point x="153.0" y="-10.0" type="curve" smooth="yes" identifier="u0iQyxKrpm"/>
      <point x="222" y="-10" identifier="JU5ZflN0kn"/>
      <point x="271.0" y="17.0" identifier="5gyzZgC3pF"/>
      <point x="296.0" y="99.0" type="curve" identifier="GsQnZ3rr3z"/>
      <point x="284.0" y="170.0" type="line" identifier="CEqvSyNGeV"/>
      <point x="277.304191856754" y="106.86809464939503" identifier="HWfqvrSTj3"/>
      <point x="262.0" y="83.0" identifier="ZV9UndXbjS"/>
      <point x="239" y="83.0" type="curve" smooth="yes" identifier="cJpZCkNedc"/>
      <point x="226.0" y="83.0" identifier="owzPjZIriF"/>
      <point x="216.0" y="91.36842105263159" identifier="SOzYWcw39i"/>
      <point x="216.0" y="136.0" type="curve" smooth="yes" identifier="AdPq3qRqLn"/>
      <point x="216" y="209" identifier="sRFnigaEWl"/>
      <point x="230.0" y="232.0" identifier="txEffLFL5L"/>
      <point x="288.0" y="244.0" type="curve" identifier="IqvO0myy5d"/>
    </contour>
    <contour>
      <point x="285.0" y="0.0" type="line" identifier="hIbgG4hIks"/>
      <point x="524.0" y="0.0" type="line" identifier="5aGN66MRnB"/>
      <point x="524.0" y="73.0" type="line" identifier="SVp1NLHB4o"/>
      <point x="515" y="73" type="line" smooth="yes" identifier="rQWrYP1Zqd"/>
      <point x="504" y="73.0" identifier="8K51e5lmz9"/>
      <point x="503.0" y="82.0" identifier="77W8clAkyO"/>
      <point x="503.0" y="95" type="curve" smooth="yes" identifier="pLJE3gm1u0"/>
      <point x="503.0" y="360" type="line" smooth="yes" identifier="ztCI6Ai25U"/>
      <point x="503" y="467" identifier="RDCEzfEFuP"/>
      <point x="419" y="523" identifier="Sw89SUCOS2"/>
      <point x="264" y="523.0" type="curve" smooth="yes" identifier="adAc4H1ruh"/>
      <point x="147.0695652173913" y="523.0" identifier="CUq0Xm2QTy"/>
      <point x="79.62758467536682" y="491.6364517069057" identifier="exkeiJa3QU"/>
      <point x="38.0" y="451.0" type="curve" identifier="QEOHCf7Q89"/>
      <point x="39.0" y="353.0" type="line" identifier="EUbBDZYZNd"/>
      <point x="206.0" y="353.0" type="line" identifier="RKwzjA4kEZ"/>
      <point x="206.0" y="457.0" type="line" identifier="moaOOl4Pio"/>
      <point x="162.0" y="452.0" identifier="VgDd8ProhS"/>
      <point x="152.0" y="409.0" identifier="9yRDa1ChHm"/>
      <point x="187.0" y="403.0" type="curve" identifier="01F54MMBDm"/>
      <point x="196.87486134893965" y="424.72469496766723" identifier="62pZNeLnhw"/>
      <point x="211.03773584905662" y="436.0" identifier="h1VqihsIz7"/>
      <point x="236" y="436.0" type="curve" smooth="yes" identifier="kJPhPF4uBi"/>
      <point x="264.0" y="436.0" identifier="gytrGsLgGP"/>
      <point x="273.0" y="425" identifier="E49AzdhhZO"/>
      <point x="273.0" y="373" type="curve" smooth="yes" identifier="GJcLv7WyO4"/>
      <point x="273.0" y="99.0" type="line" identifier="jEnZQxaViF"/>
      <point x="285.0" y="96.0" type="line" identifier="rrcS4J9V3V"/>
    </contour>
  </outline>
</glyph>
<glyph name="e" format="2">
  <advance width="527"/>
  <unicode hex="0065"/>
  <anchor x="269" y="513" name="top"/>
  <anchor x="445" y="1" name="right"/>
  <anchor x="293" y="0" name="bottom"/>
  <outline>
    <contour>
      <point x="286.0" y="-10.0" type="curve" smooth="yes"/>
      <point x="402.6350710900474" y="-10.0"/>
      <point x="467" y="45"/>
      <point x="500.0" y="127.0" type="curve"/>
      <point x="424.0" y="161.0" type="line"/>
      <point x="408" y="119"/>
      <point x="378.0" y="83.0"/>
      <point x="332.0" y="83.0" type="curve" smooth="yes"/>
      <point x="258" y="83"/>
      <point x="248.0" y="121.22222222222223"/>
      <point x="248.0" y="255.0" type="curve" smooth="yes"/>
      <point x="248.0" y="412"/>
      <point x="255" y="434"/>
      <point x="277.0" y="434.0" type="curve" smooth="yes"/>
      <point x="304" y="434.0"/>
      <point x="309.0" y="417"/>
      <point x="309.0" y="268.0" type="curve"/>
      <point x="320.0" y="302.0" type="line"/>
      <point x="232.0" y="302.0" type="line"/>
      <point x="232.0" y="222.0" type="line"/>
      <point x="499.0" y="222.0" type="line"/>
      <point x="501.0" y="437"/>
      <point x="428" y="523"/>
      <point x="271.0" y="523.0" type="curve" smooth="yes"/>
      <point x="107" y="523.0"/>
      <point x="15" y="430"/>
      <point x="15.0" y="255.0" type="curve" smooth="yes"/>
      <point x="15.0" y="83"/>
      <point x="107" y="-10.0"/>
    </contour>
  </outline>
</glyph>
<glyph name="g" format="2">
  <advance width="553"/>
  <unicode hex="0067"/>
  <anchor x="263.0" y="513" name="top"/>
  <outline>
    <contour>
      <point x="545" y="392" type="curve"/>
      <point x="545" y="533" type="line"/>
      <point x="494.6385513653463" y="537.6630970958013"/>
      <point x="457" y="514"/>
      <point x="408" y="407" type="curve"/>
      <point x="426" y="407" type="line"/>
      <point x="452.6243734732669" y="413.21235381042897"/>
      <point x="495.8895661973895" y="406.44424523606193"/>
    </contour>
    <contour>
      <point x="254" y="166" type="curve" smooth="yes"/>
      <point x="401" y="166.0"/>
      <point x="491.0" y="221.0"/>
      <point x="491" y="342" type="curve" smooth="yes"/>
      <point x="491.0" y="463.0"/>
      <point x="401" y="523.0"/>
      <point x="254" y="523" type="curve" smooth="yes"/>
      <point x="108" y="523.0"/>
      <point x="21.0" y="463.0"/>
      <point x="21" y="342" type="curve" smooth="yes"/>
      <point x="21.0" y="221.0"/>
      <point x="106" y="166.0"/>
    </contour>
    <contour>
      <point x="254" y="241" type="curve" smooth="yes"/>
      <point x="231" y="241.0"/>
      <point x="223.0" y="253.0"/>
      <point x="223" y="341" type="curve" smooth="yes"/>
      <point x="223.0" y="429.0"/>
      <point x="230" y="444.0"/>
      <point x="254" y="444" type="curve" smooth="yes"/>
      <point x="281" y="444.0"/>
      <point x="286.0" y="429.0"/>
      <point x="286" y="341" type="curve" smooth="yes"/>
      <point x="286.0" y="253.0"/>
      <point x="281" y="241.0"/>
    </contour>
    <contour>
      <point x="206" y="-236" type="curve" smooth="yes"/>
      <point x="265" y="-236" type="line" smooth="yes"/>
      <point x="436" y="-236"/>
      <point x="542" y="-172"/>
      <point x="542" y="-39" type="curve" smooth="yes"/>
      <point x="542" y="57"/>
      <point x="480" y="104"/>
      <point x="347" y="104" type="curve" smooth="yes"/>
      <point x="197" y="104" type="line" smooth="yes"/>
      <point x="168" y="104"/>
      <point x="159" y="113"/>
      <point x="159" y="134" type="curve" smooth="yes"/>
      <point x="159" y="158"/>
      <point x="179" y="176"/>
      <point x="217" y="190" type="curve"/>
      <point x="170" y="200" type="line"/>
      <point x="58" y="181"/>
      <point x="5" y="138"/>
      <point x="5" y="72" type="curve" smooth="yes"/>
      <point x="5" y="8"/>
      <point x="41" y="-30"/>
      <point x="100" y="-53" type="curve"/>
      <point x="105" y="-74" type="line"/>
      <point x="282" y="-74" type="line" smooth="yes"/>
      <point x="347.0" y="-74.0"/>
      <point x="366" y="-82"/>
      <point x="366" y="-106" type="curve" smooth="yes"/>
      <point x="366" y="-137"/>
      <point x="337" y="-157"/>
      <point x="257" y="-157" type="curve" smooth="yes"/>
      <point x="236" y="-157" type="line" smooth="yes"/>
      <point x="166" y="-157"/>
      <point x="141" y="-142"/>
      <point x="141" y="-110" type="curve" smooth="yes"/>
      <point x="141" y="-87"/>
      <point x="145" y="-72"/>
      <point x="171" y="-57" type="curve"/>
      <point x="134" y="-26" type="line"/>
      <point x="18" y="-46"/>
      <point x="-19" y="-72"/>
      <point x="-19" y="-124" type="curve" smooth="yes"/>
      <point x="-19" y="-207"/>
      <point x="65" y="-236"/>
    </contour>
  </outline>
</glyph>
<glyph name="k" format="2">
  <advance width="628"/>
  <unicode hex="006B"/>
  <anchor x="319" y="0" name="bottom"/>
  <outline>
    <contour>
      <point x="620.0" y="0.0" type="line"/>
      <point x="620.0" y="72.0" type="line"/>
      <point x="618.0" y="72.0" type="line"/>
      <point x="598.0" y="72.0"/>
      <point x="580.0" y="80.0"/>
      <point x="571.0" y="104.0" type="curve" smooth="yes"/>
      <point x="438.0" y="366.0" type="line"/>
      <point x="378.0" y="269.0" type="line"/>
      <point x="507.0" y="402.0" type="line" smooth="yes"/>
      <point x="524.0" y="424.0"/>
      <point x="547.0" y="442.0"/>
      <point x="580.0" y="442.0" type="curve"/>
      <point x="581.0" y="442.0" type="line"/>
      <point x="581.0" y="513.0" type="line"/>
      <point x="354.0" y="513.0" type="line"/>
      <point x="354.0" y="442.0" type="line"/>
      <point x="361.0" y="442.0" type="line" smooth="yes"/>
      <point x="379.0" y="442.0"/>
      <point x="415.0" y="439.0"/>
      <point x="415.0" y="424.0" type="curve"/>
      <point x="278.0" y="280.0" type="line"/>
      <point x="278.0" y="250.0" type="line"/>
      <point x="329.0" y="80.0" type="line"/>
      <point x="329.0" y="74.0"/>
      <point x="319.0" y="72.0"/>
      <point x="314.0" y="72.0" type="curve" smooth="yes"/>
      <point x="311.0" y="72.0" type="line"/>
      <point x="311.0" y="0.0" type="line"/>
    </contour>
    <contour>
      <point x="262.0" y="735.0" type="line"/>
      <point x="10.0" y="735.0" type="line"/>
      <point x="10.0" y="660.0" type="line"/>
      <point x="15.0" y="658.0" type="line" smooth="yes"/>
      <point x="27.0" y="651.0"/>
      <point x="30.0" y="647.0"/>
      <point x="30.0" y="629.0" type="curve" smooth="yes"/>
      <point x="30.0" y="99.0" type="line"/>
      <point x="30.0" y="78.0"/>
      <point x="21.0" y="72.0"/>
      <point x="10.0" y="72.0" type="curve" smooth="yes"/>
      <point x="9.0" y="72.0" type="line"/>
      <point x="9.0" y="0.0" type="line"/>
      <point x="280.0" y="0.0" type="line"/>
      <point x="280.0" y="72.0" type="line"/>
      <point x="277.0" y="72.0" type="line" smooth="yes"/>
      <point x="271.0" y="72.0"/>
      <point x="262.0" y="74.0"/>
      <point x="262.0" y="80.0" type="curve"/>
    </contour>
  </outline>
</glyph>
<glyph name="o" format="2">
  <advance width="565"/>
  <unicode hex="006F"/>
  <anchor x="283.0" y="513" name="top"/>
  <anchor x="397.0" y="0" name="right"/>
  <anchor x="283.0" y="0" name="bottom"/>
  <outline>
    <contour>
      <point x="283" y="-10" type="curve" smooth="yes"/>
      <point x="457" y="-10"/>
      <point x="550" y="83"/>
      <point x="550" y="257" type="curve" smooth="yes"/>
      <point x="550" y="430"/>
      <point x="457" y="523"/>
      <point x="283" y="523" type="curve" smooth="yes"/>
      <point x="108" y="523"/>
      <point x="15" y="430"/>
      <point x="15" y="257" type="curve" smooth="yes"/>
      <point x="15" y="83"/>
      <point x="108" y="-10"/>
    </contour>
    <contour>
      <point x="283" y="76" type="curve" smooth="yes"/>
      <point x="254" y="76"/>
      <point x="248" y="100"/>
      <point x="248" y="257" type="curve" smooth="yes"/>
      <point x="248" y="413"/>
      <point x="254" y="434"/>
      <point x="283" y="434" type="curve" smooth="yes"/>
      <point x="310" y="434"/>
      <point x="317" y="413"/>
      <point x="317" y="257" type="curve" smooth="yes"/>
      <point x="317" y="100"/>
      <point x="310" y="76"/>
    </contour>
  </outline>
</glyph>
<glyph name="sterling" format="2">
  <advance width="471"/>
  <unicode hex="00A3"/>
  <outline>
    <contour>
      <point x="15.0" y="-10.0" type="line"/>
      <point x="186.0" y="17.0"/>
      <point x="274.0" y="141.0"/>
      <point x="274.0" y="261.0" type="curve" smooth="yes"/>
      <point x="274.0" y="383.0"/>
      <point x="246.0" y="461.0"/>
      <point x="246.0" y="542.0" type="curve" smooth="yes"/>
      <point x="246.0" y="595.0"/>
      <point x="253.0" y="625.0"/>
      <point x="274.0" y="625.0" type="curve" smooth="yes"/>
      <point x="282.0" y="625.0"/>
      <point x="290.0" y="614.0"/>
      <point x="297.0" y="593.0" type="curve"/>
      <point x="328.0" y="599.0"/>
      <point x="322.0" y="629.0"/>
      <point x="283.0" y="629.0" type="curve"/>
      <point x="283.0" y="522.0" type="line"/>
      <point x="438.0" y="522.0" type="line"/>
      <point x="438.0" y="662.0" type="line"/>
      <point x="419.0" y="682.0"/>
      <point x="367.0" y="720.0"/>
      <point x="259.0" y="720.0" type="curve" smooth="yes"/>
      <point x="105.0" y="720.0"/>
      <point x="31.0" y="633.0"/>
      <point x="31.0" y="527.0" type="curve" smooth="yes"/>
      <point x="31.0" y="401.0"/>
      <point x="111.0" y="340.0"/>
      <point x="111.0" y="232.0" type="curve" smooth="yes"/>
      <point x="111.0" y="168.0"/>
      <point x="77.0" y="128.0"/>
      <point x="15.0" y="107.0" type="curve"/>
    </contour>
    <contour>
      <point x="318.0" y="-10.0" type="curve"/>
      <point x="403.0" y="-10.0"/>
      <point x="449.0" y="93.0"/>
      <point x="474.0" y="200.0" type="curve"/>
      <point x="382.0" y="231.0" type="line"/>
      <point x="365.0" y="169.0"/>
      <point x="352.0" y="143.0"/>
      <point x="314.0" y="143.0" type="curve" smooth="yes"/>
      <point x="269.0" y="143.0"/>
      <point x="250.0" y="170.0"/>
      <point x="205.0" y="227.0" type="curve"/>
      <point x="170.0" y="217.0"/>
      <point x="132.0" y="156.0"/>
      <point x="134.0" y="132.0" type="curve"/>
      <point x="214.0" y="42.0"/>
      <point x="255.0" y="-10.0"/>
    </contour>
    <contour>
      <point x="13.0" y="398.0" type="line"/>
      <point x="13.0" y="295.0" type="line"/>
      <point x="378.0" y="295.0" type="line"/>
      <point x="378.0" y="398.0" type="line"/>
    </contour>
  </outline>
</glyph>
<glyph name="degree" format="2">
  <advance width="429"/>
  <unicode hex="00B0"/>
  <outline>
    <contour>
      <point x="280.0" y="530.0" type="curve" smooth="yes"/>
      <point x="280.0" y="474.0"/>
      <point x="254.0" y="438.0"/>
      <point x="214.0" y="438.0" type="curve" smooth="yes"/>
      <point x="176.0" y="438.0"/>
      <point x="149.0" y="474.0"/>
      <point x="149.0" y="530.0" type="curve" smooth="yes"/>
      <point x="149.0" y="588.0"/>
      <point x="176.0" y="623.0"/>
      <point x="214.0" y="623.0" type="curve" smooth="yes"/>
      <point x="254.0" y="623.0"/>
      <point x="280.0" y="588.0"/>
    </contour>
    <contour>
      <point x="31.0" y="530.0" type="curve" smooth="yes"/>
      <point x="31.0" y="412.0"/>
      <point x="113.0" y="331.0"/>
      <point x="214.0" y="331.0" type="curve" smooth="yes"/>
      <point x="316.0" y="331.0"/>
      <point x="398.0" y="412.0"/>
      <point x="398.0" y="530.0" type="curve" smooth="yes"/>
      <point x="398.0" y="648.0"/>
      <point x="316.0" y="729.0"/>
      <point x="214.0" y="729.0" type="curve" smooth="yes"/>
      <point x="113.0" y="729.0"/>
      <point x="31.0" y="648.0"/>
    </contour>
  </outline>
</glyph>
<glyph name="eogonek" format="2">
  <advance width="527"/>
  <unicode hex="0119"/>
  <outline>
    <contour>
      <point x="315.0" y="-245.0" type="curve" smooth="yes"/>
      <point x="390.0" y="-245.0"/>
      <point x="433.0" y="-214.0"/>
      <point x="465.0" y="-169.0" type="curve"/>
      <point x="422.0" y="-120.0" type="line"/>
      <point x="414.0" y="-129.0"/>
      <point x="400.0" y="-148.0"/>
      <point x="377.0" y="-148.0" type="curve" smooth="yes"/>
      <point x="358.0" y="-148.0"/>
      <point x="347.0" y="-135.0"/>
      <point x="347.0" y="-107.0" type="curve" smooth="yes"/>
      <point x="347.0" y="-67.0"/>
      <point x="366.0" y="-31.0"/>
      <point x="431.0" y="32.0" type="curve" smooth="yes"/>
      <point x="459.0" y="59.0"/>
      <point x="481.0" y="84.0"/>
      <point x="499.0" y="124.0" type="curve"/>
      <point x="429.0" y="172.0" type="line"/>
      <point x="410.0" y="129.0"/>
      <point x="381.0" y="84.0"/>
      <point x="331.0" y="84.0" type="curve" smooth="yes"/>
      <point x="258.0" y="84.0"/>
      <point x="248.0" y="144.0"/>
      <point x="248.0" y="255.0" type="curve" smooth="yes"/>
      <point x="248.0" y="387.0"/>
      <point x="256.0" y="434.0"/>
      <point x="277.0" y="434.0" type="curve" smooth="yes"/>
      <point x="297.0" y="434.0"/>
      <point x="304.0" y="401.0"/>
      <point x="305.0" y="268.0" type="curve"/>
      <point x="320.0" y="302.0" type="line"/>
      <point x="123.0" y="302.0" type="line"/>
      <point x="123.0" y="222.0" type="line"/>
      <point x="512.0" y="222.0" type="line"/>
      <point x="511.0" y="423.0"/>
      <point x="428.0" y="523.0"/>
      <point x="271.0" y="523.0" type="curve" smooth="yes"/>
      <point x="121.0" y="523.0"/>
      <point x="15.0" y="417.0"/>
      <point x="15.0" y="255.0" type="curve" smooth="yes"/>
      <point x="15.0" y="91.0"/>
      <point x="113.0" y="-10.0"/>
      <point x="286.0" y="-10.0" type="curve" smooth="yes"/>
      <point x="336.0" y="-10.0"/>
      <point x="377.0" y="0.0"/>
      <point x="410.0" y="17.0" type="curve"/>
      <point x="414.0" y="43.0" type="line"/>
      <point x="259.0" y="-8.0"/>
      <point x="186.0" y="-56.0"/>
      <point x="186.0" y="-138.0" type="curve" smooth="yes"/>
      <point x="186.0" y="-208.0"/>
      <point x="237.0" y="-245.0"/>
    </contour>
  </outline>
</glyph>
<glyph name="ibreve" format="2">
  <advance width="291"/>
  <unicode hex="012D"/>
  <outline>
    <contour>
      <point x="145.0" y="559.0" type="curve" smooth="yes"/>
      <point x="52.0" y="559.0"/>
      <point x="-13.0" y="622.0"/>
      <point x="-9.0" y="748.0" type="curve"/>
      <point x="89.0" y="748.0" type="line"/>
      <point x="95.0" y="698.0"/>
      <point x="114.0" y="687.0"/>
      <point x="148.0" y="687.0" type="curve" smooth="yes"/>
      <point x="183.0" y="687.0"/>
      <point x="200.0" y="698.0"/>
      <point x="206.0" y="748.0" type="curve"/>
      <point x="300.0" y="748.0" type="line"/>
      <point x="304.0" y="622.0"/>
      <point x="239.0" y="559.0"/>
    </contour>
    <component base="dotlessi"/>
  </outline>
</glyph>
<glyph name="Ldot" format="2">
  <advance width="591"/>
  <unicode hex="013F"/>
  <outline>
    <contour>
      <point x="345.0" y="710.0" type="line"/>
      <point x="345.0" y="633.0" type="line"/>
      <point x="330.0" y="633.0" type="line" smooth="yes"/>
      <point x="312.0" y="633.0"/>
      <point x="299.0" y="626.0"/>
      <point x="299.0" y="597.0" type="curve" smooth="yes"/>
      <point x="299.0" y="87.0" type="line"/>
      <point x="338.0" y="87.0" type="line" smooth="yes"/>
      <point x="399.0" y="87.0"/>
      <point x="424.0" y="94.0"/>
      <point x="428.0" y="130.0" type="curve" smooth="yes"/>
      <point x="436.0" y="233.0" type="line"/>
      <point x="537.0" y="233.0" type="line"/>
      <point x="537.0" y="0.0" type="line"/>
      <point x="14.0" y="0.0" type="line"/>
      <point x="14.0" y="77.0" type="line"/>
      <point x="23.0" y="77.0" type="line" smooth="yes"/>
      <point x="40.0" y="77.0"/>
      <point x="52.0" y="84.0"/>
      <point x="52.0" y="113.0" type="curve" smooth="yes"/>
      <point x="52.0" y="597.0" type="line" smooth="yes"/>
      <point x="52.0" y="626.0"/>
      <point x="40.0" y="633.0"/>
      <point x="23.0" y="633.0" type="curve" smooth="yes"/>
      <point x="14.0" y="633.0" type="line"/>
      <point x="14.0" y="710.0" type="line"/>
    </contour>
    <component base="periodcentered" xOffset="314" yOffset="64"/>
  </outline>
</glyph>
<glyph name="Eng" format="2">
  <advance width="623"/>
  <unicode hex="014A"/>
  <outline>
    <contour>
      <point x="419.0" y="-212.0" type="curve" smooth="yes"/>
      <point x="388.0" y="-212.0"/>
      <point x="356.0" y="-207.0"/>
      <point x="328.0" y="-194.0" type="curve"/>
      <point x="328.0" y="-91.0" type="line"/>
      <point x="342.0" y="-98.0"/>
      <point x="374.0" y="-113.0"/>
      <point x="412.0" y="-113.0" type="curve" smooth="yes"/>
      <point x="448.0" y="-113.0"/>
      <point x="475.0" y="-86.0"/>
      <point x="475.0" y="-6.0" type="curve" smooth="yes"/>
      <point x="475.0" y="93.0" type="line"/>
      <point x="494.0" y="-116.0" type="line"/>
      <point x="111.0" y="670.0" type="line"/>
      <point x="141.0" y="674.0" type="line"/>
      <point x="141.0" y="92.0" type="line" smooth="yes"/>
      <point x="141.0" y="85.0"/>
      <point x="158.0" y="77.0"/>
      <point x="177.0" y="77.0" type="curve" smooth="yes"/>
      <point x="187.0" y="77.0" type="line"/>
      <point x="187.0" y="0.0" type="line"/>
      <point x="14.0" y="0.0" type="line"/>
      <point x="14.0" y="77.0" type="line"/>
      <point x="23.0" y="77.0" type="line" smooth="yes"/>
      <point x="40.0" y="77.0"/>
      <point x="52.0" y="89.0"/>
      <point x="52.0" y="118.0" type="curve" smooth="yes"/>
      <point x="52.0" y="597.0" type="line" smooth="yes"/>
      <point x="52.0" y="626.0"/>
      <point x="40.0" y="633.0"/>
      <point x="23.0" y="633.0" type="curve" smooth="yes"/>
      <point x="14.0" y="633.0" type="line"/>
      <point x="14.0" y="710.0" type="line"/>
      <point x="362.0" y="710.0" type="line"/>
      <point x="530.0" y="292.0" type="line"/>
      <point x="480.0" y="150.0" type="line"/>
      <point x="480.0" y="618.0" type="line" smooth="yes"/>
      <point x="480.0" y="625.0"/>
      <point x="462.0" y="633.0"/>
      <point x="444.0" y="633.0" type="curve" smooth="yes"/>
      <point x="434.0" y="633.0" type="line"/>
      <point x="434.0" y="710.0" type="line"/>
      <point x="607.0" y="710.0" type="line"/>
      <point x="607.0" y="633.0" type="line"/>
      <point x="599.0" y="633.0" type="line" smooth="yes"/>
      <point x="581.0" y="633.0"/>
      <point x="570.0" y="625.0"/>
      <point x="570.0" y="596.0" type="curve"/>
      <point x="570.0" y="-4.0" type="line" smooth="yes"/>
      <point x="570.0" y="-139.0"/>
      <point x="521.0" y="-212.0"/>
    </contour>
  </outline>
</glyph>
<glyph name="eng" format="2">
  <advance width="556"/>
  <unicode hex="014B"/>
  <outline>
    <contour>
      <point x="10.0" y="0.0" type="line"/>
      <point x="280.0" y="0.0" type="line"/>
      <point x="280.0" y="72.0" type="line"/>
      <point x="277.0" y="72.0" type="line" smooth="yes"/>
      <point x="272.0" y="72.0"/>
      <point x="263.0" y="74.0"/>
      <point x="263.0" y="80.0" type="curve" smooth="yes"/>
      <point x="263.0" y="405.0" type="line"/>
      <point x="250.0" y="404.0" type="line"/>
      <point x="250.0" y="513.0" type="line"/>
      <point x="10.0" y="513.0" type="line"/>
      <point x="10.0" y="438.0" type="line"/>
      <point x="15.0" y="436.0" type="line" smooth="yes"/>
      <point x="27.0" y="429.0"/>
      <point x="30.0" y="425.0"/>
      <point x="30.0" y="407.0" type="curve" smooth="yes"/>
      <point x="30.0" y="99.0" type="line"/>
      <point x="30.0" y="78.0"/>
      <point x="21.0" y="72.0"/>
      <point x="10.0" y="72.0" type="curve" smooth="yes"/>
      <point x="10.0" y="72.0" type="line"/>
    </contour>
    <contour>
      <point x="557.0" y="345.0" type="line" smooth="yes"/>
      <point x="557.0" y="461.0"/>
      <point x="497.0" y="523.0"/>
      <point x="406.0" y="523.0" type="curve" smooth="yes"/>
      <point x="332.0" y="523.0"/>
      <point x="274.0" y="476.0"/>
      <point x="252.0" y="396.0" type="curve"/>
      <point x="263.0" y="325.0" type="line"/>
      <point x="272.0" y="375.0"/>
      <point x="285.0" y="407.0"/>
      <point x="303.0" y="407.0" type="curve" smooth="yes"/>
      <point x="320.0" y="407.0"/>
      <point x="325.0" y="388.0"/>
      <point x="325.0" y="348.0" type="curve" smooth="yes"/>
      <point x="325.0" y="-27.0" type="line" smooth="yes"/>
      <point x="325.0" y="-117.0"/>
      <point x="311.0" y="-146.0"/>
      <point x="276.0" y="-146.0" type="curve" smooth="yes"/>
      <point x="251.0" y="-146.0"/>
      <point x="231.0" y="-136.0"/>
      <point x="215.0" y="-128.0" type="curve"/>
      <point x="215.0" y="-221.0" type="line"/>
      <point x="227.0" y="-228.0"/>
      <point x="271.0" y="-236.0"/>
      <point x="326.0" y="-236.0" type="curve" smooth="yes"/>
      <point x="491.0" y="-236.0"/>
      <point x="557.0" y="-173.0"/>
      <point x="557.0" y="0.0" type="curve" smooth="yes"/>
    </contour>
  </outline>
</glyph>
<glyph name="Tbar" format="2">
  <advance width="652"/>
  <unicode hex="0166"/>
  <outline>
    <contour>
      <point x="80.0" y="356.0" type="line"/>
      <point x="80.0" y="263.0" type="line"/>
      <point x="572.0" y="263.0" type="line"/>
      <point x="572.0" y="356.0" type="line"/>
    </contour>
    <component base="T"/>
  </outline>
</glyph>
<glyph name="Ohorn" format="2">
  <advance width="702"/>
  <unicode hex="01A0"/>
  <anchor x="345" y="742" name="top"/>
  <outline>
    <contour>
      <point x="344.0" y="84.0" type="curve" smooth="yes"/>
      <point x="300.0" y="84.0"/>
      <point x="277.0" y="177.0"/>
      <point x="277.0" y="355.0" type="curve" smooth="yes"/>
      <point x="277.0" y="533.0"/>
      <point x="300.0" y="626.0"/>
      <point x="344.0" y="626.0" type="curve" smooth="yes"/>
      <point x="389.0" y="626.0"/>
      <point x="412.0" y="533.0"/>
      <point x="412.0" y="355.0" type="curve" smooth="yes"/>
      <point x="412.0" y="177.0"/>
      <point x="389.0" y="84.0"/>
    </contour>
    <contour>
      <point x="344.0" y="720.0" type="curve"/>
      <point x="151.0" y="720.0"/>
      <point x="21.0" y="575.0"/>
      <point x="21.0" y="355.0" type="curve" smooth="yes"/>
      <point x="21.0" y="134.0"/>
      <point x="151.0" y="-10.0"/>
      <point x="344.0" y="-10.0" type="curve" smooth="yes"/>
      <point x="537.0" y="-10.0"/>
      <point x="668.0" y="134.0"/>
      <point x="668.0" y="355.0" type="curve" smooth="yes"/>
      <point x="668.0" y="519.0"/>
      <point x="589.0" y="611.0"/>
      <point x="470.0" y="659.0" type="curve"/>
      <point x="542.0" y="617.0" type="line"/>
      <point x="542.0" y="646.0" type="line"/>
      <point x="415.0" y="660.0" type="line"/>
      <point x="426.0" y="656.0"/>
      <point x="524.0" y="629.0"/>
      <point x="571.0" y="629.0" type="curve" smooth="yes"/>
      <point x="676.0" y="629.0"/>
      <point x="713.0" y="720.0"/>
      <point x="712.0" y="877.0" type="curve"/>
      <point x="559.0" y="877.0" type="line"/>
      <point x="556.0" y="787.0"/>
      <point x="551.0" y="704.0"/>
      <point x="476.0" y="704.0" type="curve" smooth="yes"/>
      <point x="448.0" y="704.0"/>
      <point x="407.0" y="720.0"/>
    </contour>
  </outline>
</glyph>
<glyph name="uhorn" format="2">
  <advance width="633"/>
  <unicode hex="01B0"/>
  <anchor x="284" y="513" name="top"/>
  <outline>
    <contour>
      <point x="418.0" y="466.0" type="line"/>
      <point x="608.0" y="467.0"/>
      <point x="660.0" y="517.0"/>
      <point x="660.0" y="680.0" type="curve"/>
      <point x="512.0" y="680.0" type="line"/>
      <point x="510.0" y="545.0"/>
      <point x="475.0" y="513.0"/>
      <point x="375.0" y="513.0" type="curve" smooth="yes"/>
      <point x="286.0" y="513.0" type="line"/>
      <point x="286.0" y="438.0" type="line"/>
      <point x="293.0" y="436.0" type="line" smooth="yes"/>
      <point x="304.0" y="432.0"/>
      <point x="320.0" y="425.0"/>
      <point x="320.0" y="407.0" type="curve" smooth="yes"/>
      <point x="320.0" y="108.0" type="line"/>
      <point x="333.0" y="119.0" type="line"/>
      <point x="333.0" y="0.0" type="line"/>
      <point x="573.0" y="0.0" type="line"/>
      <point x="573.0" y="75.0" type="line"/>
      <point x="566.0" y="77.0" type="line" smooth="yes"/>
      <point x="554.0" y="82.0"/>
      <point x="553.0" y="86.0"/>
      <point x="553.0" y="104.0" type="curve" smooth="yes"/>
      <point x="553.0" y="511.0" type="line"/>
    </contour>
    <contour>
      <point x="261.0" y="513.0" type="line"/>
      <point x="8.0" y="513.0" type="line"/>
      <point x="8.0" y="438.0" type="line"/>
      <point x="14.0" y="436.0" type="line" smooth="yes"/>
      <point x="25.0" y="429.0"/>
      <point x="28.0" y="425.0"/>
      <point x="28.0" y="407.0" type="curve" smooth="yes"/>
      <point x="28.0" y="168.0" type="line" smooth="yes"/>
      <point x="28.0" y="52.0"/>
      <point x="88.0" y="-10.0"/>
      <point x="179.0" y="-10.0" type="curve" smooth="yes"/>
      <point x="253.0" y="-10.0"/>
      <point x="320.0" y="39.0"/>
      <point x="343.0" y="143.0" type="curve"/>
      <point x="319.0" y="188.0" type="line"/>
      <point x="310.0" y="138.0"/>
      <point x="298.0" y="106.0"/>
      <point x="281.0" y="106.0" type="curve" smooth="yes"/>
      <point x="266.0" y="106.0"/>
      <point x="261.0" y="126.0"/>
      <point x="261.0" y="166.0" type="curve" smooth="yes"/>
    </contour>
  </outline>
</glyph>
<glyph name="verticallinemod" format="2">
  <advance width="421"/>
  <unicode hex="02C8"/>
  <outline>
    <contour>
      <point x="151.0" y="530.0" type="line"/>
      <point x="269.0" y="530.0" type="line"/>
      <point x="269.0" y="750.0" type="line"/>
      <point x="151.0" y="750.0" type="line"/>
    </contour>
  </outline>
</glyph>
<glyph name="Omega" format="2">
  <advance width="722"/>
  <unicode hex="03A9"/>
  <outline>
    <contour>
      <point x="361.0" y="720.0" type="curve" smooth="yes"/>
      <point x="560.0" y="720.0"/>
      <point x="672.0" y="609.0"/>
      <point x="672.0" y="460.0" type="curve" smooth="yes"/>
      <point x="672.0" y="295.0"/>
      <point x="513.0" y="176.0"/>
      <point x="410.0" y="97.0" type="curve"/>
      <point x="434.0" y="139.0" type="line"/>
      <point x="512.0" y="139.0" type="line" smooth="yes"/>
      <point x="576.0" y="139.0"/>
      <point x="607.0" y="146.0"/>
      <point x="614.0" y="182.0" type="curve" smooth="yes"/>
      <point x="622.0" y="230.0" type="line"/>
      <point x="705.0" y="230.0" type="line"/>
      <point x="705.0" y="0.0" type="line"/>
      <point x="380.0" y="0.0" type="line"/>
      <point x="380.0" y="175.0" type="line"/>
      <point x="422.0" y="258.0"/>
      <point x="440.0" y="334.0"/>
      <point x="440.0" y="452.0" type="curve" smooth="yes"/>
      <point x="440.0" y="561.0"/>
      <point x="420.0" y="626.0"/>
      <point x="361.0" y="626.0" type="curve" smooth="yes"/>
      <point x="302.0" y="626.0"/>
      <point x="282.0" y="561.0"/>
      <point x="282.0" y="452.0" type="curve" smooth="yes"/>
      <point x="282.0" y="334.0"/>
      <point x="299.0" y="258.0"/>
      <point x="342.0" y="175.0" type="curve"/>
      <point x="342.0" y="0.0" type="line"/>
      <point x="17.0" y="0.0" type="line"/>
      <point x="17.0" y="230.0" type="line"/>
      <point x="100.0" y="230.0" type="line"/>
      <point x="108.0" y="182.0" type="line" smooth="yes"/>
      <point x="115.0" y="146.0"/>
      <point x="145.0" y="139.0"/>
      <point x="210.0" y="139.0" type="curve" smooth="yes"/>
      <point x="288.0" y="139.0" type="line"/>
      <point x="312.0" y="97.0" type="line"/>
      <point x="209.0" y="176.0"/>
      <point x="50.0" y="295.0"/>
      <point x="50.0" y="460.0" type="curve" smooth="yes"/>
      <point x="50.0" y="609.0"/>
      <point x="162.0" y="720.0"/>
    </contour>
  </outline>
</glyph>
<glyph name="thai:baht" format="2">
  <advance width="472"/>
  <unicode hex="0E3F"/>
  <outline>
    <contour>
      <point x="238.0" y="411.0" type="curve" smooth="yes"/>
      <point x="194.0" y="411.0" type="line"/>
      <point x="194.0" y="626.0" type="line"/>
      <point x="259.0" y="626.0" type="line"/>
      <point x="292.0" y="626.0"/>
      <point x="307.0" y="590.0"/>
      <point x="307.0" y="525.0" type="curve" smooth="yes"/>
      <point x="307.0" y="450.0"/>
      <point x="295.0" y="411.0"/>
    </contour>
    <contour>
      <point x="236.0" y="330.0" type="line" smooth="yes"/>
      <point x="295.0" y="330.0"/>
      <point x="310.0" y="286.0"/>
      <point x="310.0" y="211.0" type="curve" smooth="yes"/>
      <point x="310.0" y="123.0"/>
      <point x="288.0" y="84.0"/>
      <point x="246.0" y="84.0" type="curve" smooth="yes"/>
      <point x="194.0" y="84.0" type="line"/>
      <point x="194.0" y="330.0" type="line"/>
    </contour>
    <contour>
      <point x="196.0" y="790.0" type="line"/>
      <point x="196.0" y="676.0" type="line"/>
      <point x="218.0" y="660.0" type="line"/>
      <point x="218.0" y="46.0" type="line"/>
      <point x="196.0" y="36.0" type="line"/>
      <point x="196.0" y="-110.0" type="line"/>
      <point x="297.0" y="-110.0" type="line"/>
      <point x="297.0" y="38.0" type="line"/>
      <point x="274.0" y="50.0" type="line"/>
      <point x="274.0" y="662.0" type="line"/>
      <point x="297.0" y="673.0" type="line"/>
      <point x="297.0" y="790.0" type="line"/>
    </contour>
    <contour>
      <point x="345.0" y="372.0" type="line"/>
      <point x="411.0" y="377.0"/>
      <point x="467.0" y="427.0"/>
      <point x="467.0" y="539.0" type="curve" smooth="yes"/>
      <point x="467.0" y="644.0"/>
      <point x="413.0" y="709.0"/>
      <point x="296.0" y="709.0" type="curve" smooth="yes"/>
      <point x="10.0" y="709.0" type="line"/>
      <point x="10.0" y="632.0" type="line"/>
      <point x="19.0" y="632.0" type="line" smooth="yes"/>
      <point x="28.0" y="632.0"/>
      <point x="35.0" y="625.0"/>
      <point x="35.0" y="596.0" type="curve" smooth="yes"/>
      <point x="35.0" y="114.0" type="line" smooth="yes"/>
      <point x="35.0" y="85.0"/>
      <point x="28.0" y="78.0"/>
      <point x="19.0" y="78.0" type="curve" smooth="yes"/>
      <point x="10.0" y="78.0" type="line"/>
      <point x="10.0" y="1.0" type="line"/>
      <point x="289.0" y="1.0" type="line" smooth="yes"/>
      <point x="415.0" y="1.0"/>
      <point x="473.0" y="77.0"/>
      <point x="473.0" y="202.0" type="curve" smooth="yes"/>
      <point x="473.0" y="318.0"/>
      <point x="411.0" y="374.0"/>
      <point x="335.0" y="380.0" type="curve"/>
      <point x="357.0" y="366.0" type="line"/>
      <point x="357.0" y="388.0" type="line"/>
    </contour>
  </outline>
</glyph>
<glyph name="Germandbls" format="2">
  <advance width="777"/>
  <unicode hex="1E9E"/>
  <outline>
    <contour>
      <point x="511.0" y="84.0" type="curve"/>
      <point x="467.0" y="84.0"/>
      <point x="440.0" y="147.0"/>
      <point x="429.0" y="224.0" type="curve"/>
      <point x="340.0" y="224.0" type="line"/>
      <point x="340.0" y="0.0" type="line"/>
      <point x="407.0" y="0.0" type="line"/>
      <point x="429.0" y="168.0" type="line"/>
      <point x="432.0" y="174.0"/>
      <point x="406.0" y="157.0"/>
      <point x="385.0" y="187.0" type="curve"/>
      <point x="403.0" y="55.0"/>
      <point x="451.0" y="-10.0"/>
      <point x="579.0" y="-10.0" type="curve" smooth="yes"/>
      <point x="693.0" y="-10.0"/>
      <point x="767.0" y="70.0"/>
      <point x="767.0" y="185.0" type="curve" smooth="yes"/>
      <point x="767.0" y="315.0"/>
      <point x="676.0" y="399.0"/>
      <point x="489.0" y="418.0" type="curve"/>
      <point x="542.0" y="349.0" type="line"/>
      <point x="702.0" y="617.0" type="line"/>
      <point x="702.0" y="710.0" type="line"/>
      <point x="313.0" y="710.0" type="line" smooth="yes"/>
      <point x="143.0" y="710.0"/>
      <point x="52.0" y="648.0"/>
      <point x="52.0" y="477.0" type="curve" smooth="yes"/>
      <point x="52.0" y="113.0" type="line" smooth="yes"/>
      <point x="52.0" y="84.0"/>
      <point x="40.0" y="77.0"/>
      <point x="22.0" y="77.0" type="curve" smooth="yes"/>
      <point x="14.0" y="77.0" type="line"/>
      <point x="14.0" y="0.0" type="line"/>
      <point x="299.0" y="0.0" type="line"/>
      <point x="299.0" y="493.0" type="line" smooth="yes"/>
      <point x="299.0" y="591.0"/>
      <point x="314.0" y="625.0"/>
      <point x="377.0" y="625.0" type="curve"/>
      <point x="664.0" y="625.0" type="line"/>
      <point x="622.0" y="644.0"/>
      <point x="587.0" y="665.0"/>
      <point x="554.0" y="683.0" type="curve"/>
      <point x="408.0" y="432.0" type="line"/>
      <point x="408.0" y="339.0" type="line"/>
      <point x="492.0" y="319.0"/>
      <point x="552.0" y="255.0"/>
      <point x="552.0" y="166.0" type="curve" smooth="yes"/>
      <point x="552.0" y="115.0"/>
      <point x="541.0" y="84.0"/>
    </contour>
  </outline>
</glyph>
<glyph name="daggerdbl" format="2">
  <advance width="491"/>
  <unicode hex="2021"/>
  <outline>
    <contour>
      <point x="289.0" y="541.0" type="line"/>
      <point x="202.0" y="541.0" type="line"/>
      <point x="56.0" y="601.0" type="line"/>
      <point x="21.0" y="601.0" type="line"/>
      <point x="21.0" y="430.0" type="line"/>
      <point x="56.0" y="430.0" type="line"/>
      <point x="202.0" y="492.0" type="line"/>
      <point x="289.0" y="492.0" type="line"/>
      <point x="436.0" y="430.0" type="line"/>
      <point x="471.0" y="430.0" type="line"/>
      <point x="471.0" y="601.0" type="line"/>
      <point x="436.0" y="601.0" type="line"/>
    </contour>
    <contour>
      <point x="378.0" y="710.0" type="line"/>
      <point x="113.0" y="710.0" type="line"/>
      <point x="113.0" y="675.0" type="line" smooth="yes"/>
      <point x="113.0" y="640.0"/>
      <point x="201.0" y="565.0"/>
      <point x="201.0" y="508.0" type="curve"/>
      <point x="201.0" y="450.0"/>
      <point x="158.0" y="416.0"/>
      <point x="84.0" y="386.0" type="curve"/>
      <point x="84.0" y="324.0" type="line"/>
      <point x="158.0" y="294.0"/>
      <point x="201.0" y="260.0"/>
      <point x="201.0" y="202.0" type="curve"/>
      <point x="201.0" y="145.0"/>
      <point x="113.0" y="70.0"/>
      <point x="113.0" y="35.0" type="curve" smooth="yes"/>
      <point x="113.0" y="0.0" type="line"/>
      <point x="378.0" y="0.0" type="line"/>
      <point x="378.0" y="35.0" type="line" smooth="yes"/>
      <point x="378.0" y="70.0"/>
      <point x="290.0" y="145.0"/>
      <point x="290.0" y="202.0" type="curve"/>
      <point x="290.0" y="260.0"/>
      <point x="333.0" y="294.0"/>
      <point x="407.0" y="324.0" type="curve"/>
      <point x="407.0" y="386.0" type="line"/>
      <point x="333.0" y="416.0"/>
      <point x="290.0" y="450.0"/>
      <point x="290.0" y="508.0" type="curve"/>
      <point x="290.0" y="565.0"/>
      <point x="378.0" y="640.0"/>
      <point x="378.0" y="675.0" type="curve" smooth="yes"/>
    </contour>
    <contour>
      <point x="289.0" y="218.0" type="line"/>
      <point x="202.0" y="218.0" type="line"/>
      <point x="56.0" y="280.0" type="line"/>
      <point x="21.0" y="280.0" type="line"/>
      <point x="21.0" y="109.0" type="line"/>
      <point x="56.0" y="109.0" type="line"/>
      <point x="202.0" y="169.0" type="line"/>
      <point x="289.0" y="169.0" type="line"/>
      <point x="436.0" y="109.0" type="line"/>
      <point x="471.0" y="109.0" type="line"/>
      <point x="471.0" y="280.0" type="line"/>
      <point x="436.0" y="280.0" type="line"/>
    </contour>
  </outline>
</glyph>
<glyph name="lira" format="2">
  <advance width="471"/>
  <unicode hex="20A4"/>
  <outline>
    <contour>
      <point x="10.0" y="475.0" type="line"/>
      <point x="10.0" y="396.0" type="line"/>
      <point x="382.0" y="396.0" type="line"/>
      <point x="382.0" y="475.0" type="line"/>
    </contour>
    <contour>
      <point x="10.0" y="325.0" type="line"/>
      <point x="10.0" y="247.0" type="line"/>
      <point x="382.0" y="247.0" type="line"/>
      <point x="382.0" y="325.0" type="line"/>
    </contour>
    <contour>
      <point x="13.0" y="-10.0" type="line"/>
      <point x="188.0" y="17.0"/>
      <point x="283.0" y="140.0"/>
      <point x="283.0" y="261.0" type="curve" smooth="yes"/>
      <point x="283.0" y="383.0"/>
      <point x="255.0" y="464.0"/>
      <point x="255.0" y="545.0" type="curve" smooth="yes"/>
      <point x="255.0" y="598.0"/>
      <point x="260.0" y="629.0"/>
      <point x="281.0" y="629.0" type="curve" smooth="yes"/>
      <point x="290.0" y="629.0"/>
      <point x="298.0" y="617.0"/>
      <point x="303.0" y="600.0" type="curve"/>
      <point x="330.0" y="607.0"/>
      <point x="345.0" y="632.0"/>
      <point x="298.0" y="632.0" type="curve"/>
      <point x="298.0" y="540.0" type="line"/>
      <point x="445.0" y="540.0" type="line"/>
      <point x="445.0" y="662.0" type="line"/>
      <point x="422.0" y="685.0"/>
      <point x="366.0" y="720.0"/>
      <point x="265.0" y="720.0" type="curve" smooth="yes"/>
      <point x="117.0" y="720.0"/>
      <point x="46.0" y="635.0"/>
      <point x="46.0" y="532.0" type="curve" smooth="yes"/>
      <point x="46.0" y="412.0"/>
      <point x="124.0" y="338.0"/>
      <point x="124.0" y="232.0" type="curve" smooth="yes"/>
      <point x="124.0" y="167.0"/>
      <point x="82.0" y="128.0"/>
      <point x="13.0" y="106.0" type="curve"/>
    </contour>
    <contour>
      <point x="321.0" y="-10.0" type="curve" smooth="yes"/>
      <point x="402.0" y="-10.0"/>
      <point x="449.0" y="62.0"/>
      <point x="472.0" y="167.0" type="curve"/>
      <point x="390.0" y="201.0" type="line"/>
      <point x="377.0" y="142.0"/>
      <point x="361.0" y="121.0"/>
      <point x="327.0" y="121.0" type="curve" smooth="yes"/>
      <point x="282.0" y="121.0"/>
      <point x="263.0" y="147.0"/>
      <point x="212.0" y="203.0" type="curve"/>
      <point x="174.0" y="184.0"/>
      <point x="150.0" y="159.0"/>
      <point x="142.0" y="126.0" type="curve"/>
      <point x="219.0" y="36.0"/>
      <point x="257.0" y="-10.0"/>
    </contour>
  </outline>
</glyph>
<glyph name="naira" format="2">
  <advance width="471"/>
  <unicode hex="20A6"/>
  <outline>
    <contour>
      <point x="7.0" y="0.0" type="line"/>
      <point x="154.0" y="0.0" type="line"/>
      <point x="154.0" y="77.0" type="line"/>
      <point x="150.0" y="77.0" type="line" smooth="yes"/>
      <point x="136.0" y="77.0"/>
      <point x="125.0" y="85.0"/>
      <point x="125.0" y="92.0" type="curve" smooth="yes"/>
      <point x="125.0" y="673.0" type="line"/>
      <point x="88.0" y="693.0" type="line"/>
      <point x="206.0" y="0.0" type="line"/>
      <point x="429.0" y="0.0" type="line"/>
      <point x="429.0" y="596.0" type="line" smooth="yes"/>
      <point x="429.0" y="625.0"/>
      <point x="441.0" y="633.0"/>
      <point x="457.0" y="633.0" type="curve" smooth="yes"/>
      <point x="464.0" y="633.0" type="line"/>
      <point x="464.0" y="710.0" type="line"/>
      <point x="320.0" y="710.0" type="line"/>
      <point x="320.0" y="633.0" type="line"/>
      <point x="324.0" y="633.0" type="line" smooth="yes"/>
      <point x="336.0" y="633.0"/>
      <point x="346.0" y="625.0"/>
      <point x="346.0" y="618.0" type="curve" smooth="yes"/>
      <point x="346.0" y="59.0" type="line"/>
      <point x="388.0" y="21.0" type="line"/>
      <point x="278.0" y="710.0" type="line"/>
      <point x="7.0" y="710.0" type="line"/>
      <point x="7.0" y="633.0" type="line"/>
      <point x="14.0" y="633.0" type="line" smooth="yes"/>
      <point x="30.0" y="633.0"/>
      <point x="42.0" y="626.0"/>
      <point x="42.0" y="597.0" type="curve" smooth="yes"/>
      <point x="42.0" y="118.0" type="line" smooth="yes"/>
      <point x="42.0" y="89.0"/>
      <point x="30.0" y="77.0"/>
      <point x="14.0" y="77.0" type="curve" smooth="yes"/>
      <point x="7.0" y="77.0" type="line"/>
    </contour>
    <contour>
      <point x="73.0" y="506.0" type="line"/>
      <point x="8.0" y="506.0" type="line"/>
      <point x="8.0" y="430.0" type="line"/>
      <point x="74.0" y="430.0" type="line"/>
    </contour>
    <contour>
      <point x="463.0" y="430.0" type="line"/>
      <point x="463.0" y="506.0" type="line"/>
      <point x="210.0" y="506.0" type="line"/>
      <point x="207.0" y="439.0" type="line"/>
      <point x="378.0" y="439.0" type="line"/>
      <point x="390.0" y="430.0" type="line"/>
    </contour>
    <contour>
      <point x="8.0" y="253.0" type="line"/>
      <point x="285.0" y="253.0" type="line"/>
      <point x="290.0" y="320.0" type="line"/>
      <point x="93.0" y="320.0" type="line"/>
      <point x="87.0" y="329.0" type="line"/>
      <point x="8.0" y="329.0" type="line"/>
    </contour>
    <contour>
      <point x="394.0" y="253.0" type="line"/>
      <point x="463.0" y="253.0" type="line"/>
      <point x="463.0" y="329.0" type="line"/>
      <point x="394.0" y="329.0" type="line"/>
    </contour>
  </outline>
</glyph>
<glyph name="dong" format="2">
  <advance width="471"/>
  <unicode hex="20AB"/>
  <outline>
    <contour>
      <point x="220.0" y="250.0" type="curve" smooth="yes"/>
      <point x="220.0" y="352.0"/>
      <point x="220.0" y="416.0"/>
      <point x="237.0" y="416.0" type="curve" smooth="yes"/>
      <point x="251.0" y="416.0"/>
      <point x="250.0" y="370.0"/>
      <point x="247.0" y="305.0" type="curve"/>
      <point x="281.0" y="314.0" type="line"/>
      <point x="276.0" y="456.0"/>
      <point x="237.0" y="523.0"/>
      <point x="158.0" y="523.0" type="curve" smooth="yes"/>
      <point x="66.0" y="523.0"/>
      <point x="9.0" y="418.0"/>
      <point x="9.0" y="250.0" type="curve" smooth="yes"/>
      <point x="9.0" y="85.0"/>
      <point x="61.0" y="-10.0"/>
      <point x="156.0" y="-10.0" type="curve" smooth="yes"/>
      <point x="224.0" y="-10.0"/>
      <point x="252.0" y="47.0"/>
      <point x="279.0" y="168.0" type="curve"/>
      <point x="255.0" y="215.0" type="line"/>
      <point x="253.0" y="142.0"/>
      <point x="245.0" y="97.0"/>
      <point x="234.0" y="97.0" type="curve" smooth="yes"/>
      <point x="221.0" y="97.0"/>
      <point x="220.0" y="150.0"/>
    </contour>
    <contour>
      <point x="236.0" y="731.0" type="line"/>
      <point x="236.0" y="100.0" type="line"/>
      <point x="249.0" y="112.0" type="line"/>
      <point x="249.0" y="0.0" type="line"/>
      <point x="456.0" y="0.0" type="line"/>
      <point x="456.0" y="75.0" type="line"/>
      <point x="450.0" y="77.0" type="line" smooth="yes"/>
      <point x="440.0" y="81.0"/>
      <point x="440.0" y="86.0"/>
      <point x="440.0" y="104.0" type="curve" smooth="yes"/>
      <point x="440.0" y="731.0" type="line"/>
    </contour>
    <contour>
      <point x="59.0" y="-91.0" type="line"/>
      <point x="59.0" y="-190.0" type="line"/>
      <point x="426.0" y="-190.0" type="line"/>
      <point x="426.0" y="-91.0" type="line"/>
    </contour>
    <contour>
      <point x="149.0" y="663.0" type="line"/>
      <point x="149.0" y="574.0" type="line"/>
      <point x="461.0" y="574.0" type="line"/>
      <point x="461.0" y="663.0" type="line"/>
    </contour>
  </outline>
</glyph>
<glyph name="cedi" format="2">
  <advance width="471"/>
  <unicode hex="20B5"/>
  <outline>
    <contour>
      <point x="286.0" y="717.0" type="curve" smooth="yes"/>
      <point x="134.0" y="717.0"/>
      <point x="10.0" y="574.0"/>
      <point x="10.0" y="355.0" type="curve" smooth="yes"/>
      <point x="10.0" y="137.0"/>
      <point x="125.0" y="-7.0"/>
      <point x="283.0" y="-7.0" type="curve"/>
      <point x="397.0" y="-7.0"/>
      <point x="451.0" y="88.0"/>
      <point x="473.0" y="227.0" type="curve"/>
      <point x="399.0" y="261.0" type="line"/>
      <point x="383.0" y="156.0"/>
      <point x="352.0" y="87.0"/>
      <point x="308.0" y="87.0" type="curve" smooth="yes"/>
      <point x="226.0" y="87.0"/>
      <point x="200.0" y="175.0"/>
      <point x="200.0" y="355.0" type="curve" smooth="yes"/>
      <point x="200.0" y="528.0"/>
      <point x="215.0" y="632.0"/>
      <point x="303.0" y="632.0" type="curve" smooth="yes"/>
      <point x="345.0" y="632.0"/>
      <point x="369.0" y="610.0"/>
      <point x="387.0" y="578.0" type="curve"/>
      <point x="417.0" y="586.0"/>
      <point x="438.0" y="632.0"/>
      <point x="356.0" y="626.0" type="curve"/>
      <point x="356.0" y="515.0" type="line"/>
      <point x="474.0" y="515.0" type="line"/>
      <point x="474.0" y="665.0" type="line"/>
      <point x="457.0" y="680.0"/>
      <point x="396.0" y="717.0"/>
    </contour>
    <contour>
      <point x="235.0" y="790.0" type="line"/>
      <point x="235.0" y="672.0" type="line"/>
      <point x="251.0" y="663.0" type="line"/>
      <point x="251.0" y="48.0" type="line"/>
      <point x="235.0" y="34.0" type="line"/>
      <point x="235.0" y="-120.0" type="line"/>
      <point x="336.0" y="-120.0" type="line"/>
      <point x="336.0" y="34.0" type="line"/>
      <point x="319.0" y="49.0" type="line"/>
      <point x="319.0" y="668.0" type="line"/>
      <point x="336.0" y="679.0" type="line"/>
      <point x="336.0" y="790.0" type="line"/>
    </contour>
  </outline>
</glyph>
<glyph name="servicemark" format="2">
  <advance width="796"/>
  <unicode hex="2120"/>
  <outline>
    <contour>
      <point x="345.0" y="373.0" type="line"/>
      <point x="432.0" y="373.0" type="line"/>
      <point x="432.0" y="419.0" type="line"/>
      <point x="429.0" y="419.0" type="line" smooth="yes"/>
      <point x="421.0" y="419.0"/>
      <point x="414.0" y="420.0"/>
      <point x="414.0" y="423.0" type="curve" smooth="yes"/>
      <point x="414.0" y="701.0" type="line"/>
      <point x="403.0" y="700.0" type="line"/>
      <point x="476.0" y="372.0" type="line"/>
      <point x="559.0" y="372.0" type="line"/>
      <point x="635.0" y="699.0" type="line"/>
      <point x="625.0" y="700.0" type="line"/>
      <point x="625.0" y="423.0" type="line" smooth="yes"/>
      <point x="625.0" y="420.0"/>
      <point x="618.0" y="419.0"/>
      <point x="610.0" y="419.0" type="curve" smooth="yes"/>
      <point x="606.0" y="419.0" type="line"/>
      <point x="606.0" y="373.0" type="line"/>
      <point x="766.0" y="373.0" type="line"/>
      <point x="766.0" y="419.0" type="line"/>
      <point x="763.0" y="419.0" type="line" smooth="yes"/>
      <point x="755.0" y="419.0"/>
      <point x="749.0" y="422.0"/>
      <point x="749.0" y="435.0" type="curve" smooth="yes"/>
      <point x="749.0" y="648.0" type="line" smooth="yes"/>
      <point x="749.0" y="662.0"/>
      <point x="755.0" y="665.0"/>
      <point x="763.0" y="665.0" type="curve" smooth="yes"/>
      <point x="766.0" y="665.0" type="line"/>
      <point x="766.0" y="710.0" type="line"/>
      <point x="581.0" y="710.0" type="line"/>
      <point x="513.0" y="415.0" type="line"/>
      <point x="564.0" y="477.0" type="line"/>
      <point x="530.0" y="710.0" type="line"/>
      <point x="345.0" y="710.0" type="line"/>
      <point x="345.0" y="665.0" type="line"/>
      <point x="348.0" y="665.0" type="line" smooth="yes"/>
      <point x="356.0" y="665.0"/>
      <point x="361.0" y="662.0"/>
      <point x="361.0" y="648.0" type="curve" smooth="yes"/>
      <point x="361.0" y="435.0" type="line" smooth="yes"/>
      <point x="361.0" y="422.0"/>
      <point x="356.0" y="419.0"/>
      <point x="348.0" y="419.0" type="curve"/>
      <point x="345.0" y="419.0" type="line"/>
    </contour>
    <contour>
      <point x="175.0" y="417.0" type="curve" smooth="yes"/>
      <point x="128.0" y="417.0"/>
      <point x="102.0" y="447.0"/>
      <point x="89.0" y="489.0" type="curve"/>
      <point x="37.0" y="489.0" type="line"/>
      <point x="37.0" y="370.0" type="line"/>
      <point x="79.0" y="370.0" type="line"/>
      <point x="86.0" y="454.0" type="line"/>
      <point x="80.0" y="462.0"/>
      <point x="68.0" y="463.0"/>
      <point x="55.0" y="480.0" type="curve"/>
      <point x="60.0" y="404.0"/>
      <point x="98.0" y="366.0"/>
      <point x="187.0" y="366.0" type="curve" smooth="yes"/>
      <point x="263.0" y="366.0"/>
      <point x="314.0" y="405.0"/>
      <point x="314.0" y="484.0" type="curve" smooth="yes"/>
      <point x="314.0" y="556.0"/>
      <point x="271.0" y="584.0"/>
      <point x="196.0" y="603.0" type="curve" smooth="yes"/>
      <point x="169.0" y="612.0"/>
      <point x="149.0" y="617.0"/>
      <point x="149.0" y="640.0" type="curve" smooth="yes"/>
      <point x="149.0" y="657.0"/>
      <point x="158.0" y="666.0"/>
      <point x="177.0" y="666.0" type="curve" smooth="yes"/>
      <point x="214.0" y="666.0"/>
      <point x="234.0" y="643.0"/>
      <point x="245.0" y="616.0" type="curve"/>
      <point x="294.0" y="616.0" type="line"/>
      <point x="294.0" y="714.0" type="line"/>
      <point x="253.0" y="714.0" type="line"/>
      <point x="243.0" y="643.0" type="line"/>
      <point x="253.0" y="633.0"/>
      <point x="273.0" y="637.0"/>
      <point x="277.0" y="634.0" type="curve"/>
      <point x="262.0" y="693.0"/>
      <point x="221.0" y="717.0"/>
      <point x="165.0" y="717.0" type="curve" smooth="yes"/>
      <point x="90.0" y="717.0"/>
      <point x="45.0" y="680.0"/>
      <point x="45.0" y="612.0" type="curve" smooth="yes"/>
      <point x="45.0" y="533.0"/>
      <point x="101.0" y="509.0"/>
      <point x="150.0" y="493.0" type="curve" smooth="yes"/>
      <point x="197.0" y="478.0"/>
      <point x="209.0" y="471.0"/>
      <point x="209.0" y="448.0" type="curve" smooth="yes"/>
      <point x="209.0" y="427.0"/>
      <point x="196.0" y="417.0"/>
    </contour>
  </outline>
</glyph>
<glyph name="hook" format="2">
  <advance width="430"/>
  <unicode hex="2440"/>
  <anchor x="199" y="517" name="_top"/>
  <outline>
    <contour>
      <point x="51.0" y="686.0" type="line"/>
      <point x="55.0" y="741.0"/>
      <point x="91.0" y="793.0"/>
      <point x="192.0" y="793.0" type="curve" smooth="yes"/>
      <point x="280.0" y="793.0"/>
      <point x="325.0" y="755.0"/>
      <point x="325.0" y="695.0" type="curve" smooth="yes"/>
      <point x="325.0" y="624.0"/>
      <point x="273.0" y="597.0"/>
      <point x="180.0" y="589.0" type="curve"/>
      <point x="226.0" y="627.0" type="line"/>
      <point x="226.0" y="557.0" type="line"/>
      <point x="134.0" y="557.0" type="line"/>
      <point x="134.0" y="636.0" type="line"/>
      <point x="188.0" y="642.0"/>
      <point x="208.0" y="658.0"/>
      <point x="208.0" y="686.0" type="curve" smooth="yes"/>
      <point x="208.0" y="705.0"/>
      <point x="198.0" y="719.0"/>
      <point x="182.0" y="719.0" type="curve" smooth="yes"/>
      <point x="163.0" y="719.0"/>
      <point x="152.0" y="706.0"/>
      <point x="150.0" y="686.0" type="curve"/>
    </contour>
  </outline>
</glyph>
<glyph name="uni27F7" format="2">
  <advance width="1092"/>
  <unicode hex="27F7"/>
  <outline>
    <contour>
      <point x="854.0" y="324.0" type="line"/>
      <point x="779.0" y="192.0" type="line"/>
      <point x="787.0" y="179.0" type="line"/>
      <point x="1046.0" y="346.0" type="line"/>
      <point x="1046.0" y="360.0" type="line"/>
      <point x="787.0" y="527.0" type="line"/>
      <point x="779.0" y="514.0" type="line"/>
      <point x="854.0" y="382.0" type="line"/>
      <point x="239.0" y="382.0" type="line"/>
      <point x="314.0" y="514.0" type="line"/>
      <point x="305.0" y="527.0" type="line"/>
      <point x="47.0" y="360.0" type="line"/>
      <point x="47.0" y="346.0" type="line"/>
      <point x="305.0" y="179.0" type="line"/>
      <point x="314.0" y="192.0" type="line"/>
      <point x="239.0" y="324.0" type="line"/>
    </contour>
  </outline>
</glyph>
<glyph name="seven.den" format="2">
  <advance width="316"/>
  <unicode hex="E409"/>
  <outline>
    <contour>
      <point x="117.0" y="273.0" type="line" smooth="yes"/>
      <point x="89.0" y="273.0"/>
      <point x="79.0" y="269.0"/>
      <point x="77.0" y="246.0" type="curve" smooth="yes"/>
      <point x="74.0" y="204.0" type="line"/>
      <point x="26.0" y="204.0" type="line"/>
      <point x="26.0" y="373.0" type="line"/>
      <point x="300.0" y="373.0" type="line"/>
      <point x="300.0" y="284.0" type="line"/>
      <point x="247.0" y="199.0"/>
      <point x="222.0" y="143.0"/>
      <point x="222.0" y="0.0" type="curve"/>
      <point x="84.0" y="0.0" type="line"/>
      <point x="92.0" y="132.0"/>
      <point x="205.0" y="243.0"/>
      <point x="259.0" y="298.0" type="curve"/>
      <point x="276.0" y="273.0" type="line"/>
    </contour>
  </outline>
</glyph>
<glyph name="nine.den" format="2">
  <advance width="359"/>
  <unicode hex="E40B"/>
  <outline>
    <contour>
      <point x="46.0" y="46.0" type="line"/>
      <point x="138.0" y="53.0"/>
      <point x="197.0" y="104.0"/>
      <point x="197.0" y="218.0" type="curve" smooth="yes"/>
      <point x="197.0" y="306.0"/>
      <point x="192.0" y="322.0"/>
      <point x="180.0" y="322.0" type="curve" smooth="yes"/>
      <point x="167.0" y="322.0"/>
      <point x="164.0" y="305.0"/>
      <point x="164.0" y="253.0" type="curve" smooth="yes"/>
      <point x="164.0" y="212.0"/>
      <point x="168.0" y="184.0"/>
      <point x="187.0" y="184.0" type="curve" smooth="yes"/>
      <point x="198.0" y="184.0"/>
      <point x="207.0" y="202.0"/>
      <point x="216.0" y="226.0" type="curve"/>
      <point x="214.0" y="188.0" type="line"/>
      <point x="209.0" y="163.0"/>
      <point x="181.0" y="131.0"/>
      <point x="130.0" y="131.0" type="curve" smooth="yes"/>
      <point x="64.0" y="131.0"/>
      <point x="18.0" y="174.0"/>
      <point x="18.0" y="248.0" type="curve" smooth="yes"/>
      <point x="18.0" y="332.0"/>
      <point x="85.0" y="379.0"/>
      <point x="180.0" y="379.0" type="curve" smooth="yes"/>
      <point x="291.0" y="379.0"/>
      <point x="340.0" y="325.0"/>
      <point x="340.0" y="218.0" type="curve" smooth="yes"/>
      <point x="340.0" y="84.0"/>
      <point x="226.0" y="0.0"/>
      <point x="53.0" y="-10.0" type="curve"/>
    </contour>
  </outline>
</glyph>
<glyph name="f_f" format="2">
  <advance width="690"/>
  <unicode hex="FB00"/>
  <outline>
    <contour>
      <point x="-6.0" y="513.0" type="line"/>
      <point x="-6.0" y="432.0" type="line"/>
      <point x="352.0" y="432.0" type="line"/>
      <point x="352.0" y="513.0" type="line"/>
    </contour>
    <contour>
      <point x="294.0" y="513.0" type="line"/>
      <point x="294.0" y="432.0" type="line"/>
      <point x="679.0" y="432.0" type="line"/>
      <point x="679.0" y="513.0" type="line"/>
    </contour>
    <contour>
      <point x="279.0" y="80.0" type="curve"/>
      <point x="279.0" y="576.0" type="line" smooth="yes"/>
      <point x="279.0" y="632.0"/>
      <point x="289.0" y="649.0"/>
      <point x="310.0" y="649.0" type="curve" smooth="yes"/>
      <point x="320.0" y="649.0"/>
      <point x="334.0" y="642.0"/>
      <point x="332.0" y="640.0" type="curve"/>
      <point x="332.0" y="725.0" type="line"/>
      <point x="322.0" y="731.0"/>
      <point x="291.0" y="737.0"/>
      <point x="252.0" y="737.0" type="curve" smooth="yes"/>
      <point x="141.0" y="737.0"/>
      <point x="48.0" y="685.0"/>
      <point x="48.0" y="532.0" type="curve" smooth="yes"/>
      <point x="48.0" y="102.0" type="line" smooth="yes"/>
      <point x="48.0" y="81.0"/>
      <point x="38.0" y="72.0"/>
      <point x="19.0" y="72.0" type="curve" smooth="yes"/>
      <point x="9.0" y="72.0" type="line"/>
      <point x="9.0" y="0.0" type="line"/>
      <point x="302.0" y="0.0" type="line"/>
      <point x="302.0" y="72.0" type="line"/>
      <point x="300.0" y="72.0" type="line" smooth="yes"/>
      <point x="285.0" y="72.0"/>
      <point x="279.0" y="74.0"/>
    </contour>
    <contour>
      <point x="349.0" y="80.0" type="line"/>
      <point x="349.0" y="74.0"/>
      <point x="337.0" y="72.0"/>
      <point x="336.0" y="72.0" type="curve" smooth="yes"/>
      <point x="334.0" y="72.0" type="line"/>
      <point x="334.0" y="0.0" type="line"/>
      <point x="630.0" y="0.0" type="line"/>
      <point x="630.0" y="72.0" type="line"/>
      <point x="622.0" y="72.0" type="line" smooth="yes"/>
      <point x="605.0" y="72.0"/>
      <point x="579.0" y="74.0"/>
      <point x="579.0" y="80.0" type="curve" smooth="yes"/>
      <point x="579.0" y="556.0" type="line" smooth="yes"/>
      <point x="579.0" y="635.0"/>
      <point x="611.0" y="659.0"/>
      <point x="659.0" y="659.0" type="curve" smooth="yes"/>
      <point x="685.0" y="659.0"/>
      <point x="701.0" y="652.0"/>
      <point x="708.0" y="648.0" type="curve"/>
      <point x="708.0" y="735.0" type="line"/>
      <point x="695.0" y="741.0"/>
      <point x="653.0" y="748.0"/>
      <point x="600.0" y="748.0" type="curve" smooth="yes"/>
      <point x="458.0" y="748.0"/>
      <point x="349.0" y="695.0"/>
      <point x="349.0" y="543.0" type="curve"/>
    </contour>
  </outline>
</glyph>
<glyph name="acute.ucpl" format="2">
  <advance width="421"/>
  <anchor x="149" y="694" name="_top"/>
  <outline>
    <contour>
      <point x="132.0" y="871.0" type="curve" smooth="yes"/>
      <point x="130.0" y="780.0" type="line"/>
      <point x="130.0" y="754.0" type="line"/>
      <point x="205.0" y="754.0" type="line"/>
      <point x="238.0" y="806.0" type="line" smooth="yes"/>
      <point x="278.0" y="861.0"/>
      <point x="293.0" y="892.0"/>
      <point x="293.0" y="924.0" type="curve" smooth="yes"/>
      <point x="293.0" y="959.0"/>
      <point x="271.0" y="989.0"/>
      <point x="220.0" y="989.0" type="curve" smooth="yes"/>
      <point x="159.0" y="989.0"/>
      <point x="133.0" y="946.0"/>
    </contour>
  </outline>
</glyph>
<glyph name="breve_tilde" format="2">
  <advance width="419"/>
  <anchor x="209" y="524" name="_top"/>
  <outline>
    <contour>
      <point x="268.0" y="764.0" type="curve" smooth="yes"/>
      <point x="332.0" y="764.0"/>
      <point x="371.0" y="816.0"/>
      <point x="387.0" y="897.0" type="curve"/>
      <point x="304.0" y="927.0" type="line"/>
      <point x="297.0" y="896.0"/>
      <point x="289.0" y="880.0"/>
      <point x="268.0" y="880.0" type="curve" smooth="yes"/>
      <point x="236.0" y="880.0"/>
      <point x="215.0" y="925.0"/>
      <point x="150.0" y="925.0" type="curve" smooth="yes"/>
      <point x="78.0" y="925.0"/>
      <point x="46.0" y="875.0"/>
      <point x="33.0" y="792.0" type="curve"/>
      <point x="116.0" y="764.0" type="line"/>
      <point x="122.0" y="796.0"/>
      <point x="129.0" y="810.0"/>
      <point x="149.0" y="810.0" type="curve" smooth="yes"/>
      <point x="180.0" y="810.0"/>
      <point x="196.0" y="764.0"/>
    </contour>
    <contour>
      <point x="209.0" y="559.0" type="curve" smooth="yes"/>
      <point x="115.0" y="559.0"/>
      <point x="51.0" y="620.0"/>
      <point x="55.0" y="725.0" type="curve"/>
      <point x="153.0" y="725.0" type="line"/>
      <point x="157.0" y="685.0"/>
      <point x="180.0" y="675.0"/>
      <point x="212.0" y="675.0" type="curve" smooth="yes"/>
      <point x="243.0" y="675.0"/>
      <point x="266.0" y="685.0"/>
      <point x="270.0" y="725.0" type="curve"/>
      <point x="364.0" y="725.0" type="line"/>
      <point x="367.0" y="620.0"/>
      <point x="303.0" y="559.0"/>
    </contour>
  </outline>
</glyph>
<glyph name="brokenbar.uc" format="2">
  <advance width="256"/>
  <outline>
    <contour>
      <point x="198.0" y="415.0" type="line"/>
      <point x="198.0" y="741.0" type="line"/>
      <point x="58.0" y="741.0" type="line"/>
      <point x="58.0" y="415.0" type="line"/>
    </contour>
    <contour>
      <point x="58.0" y="292.0" type="line"/>
      <point x="58.0" y="-35.0" type="line"/>
      <point x="198.0" y="-35.0" type="line"/>
      <point x="198.0" y="292.0" type="line"/>
    </contour>
  </outline>
</glyph>
<glyph name="circumflex.uc" format="2">
  <advance width="421"/>
  <anchor x="201" y="694" name="_top"/>
  <outline>
    <contour>
      <point x="312.0" y="913.0" type="line"/>
      <point x="408.0" y="774.0" type="line"/>
      <point x="408.0" y="750.0" type="line"/>
      <point x="293.0" y="750.0" type="line"/>
      <point x="157.0" y="845.0" type="line"/>
      <point x="297.0" y="845.0" type="line"/>
      <point x="160.0" y="750.0" type="line"/>
      <point x="53.0" y="750.0" type="line"/>
      <point x="53.0" y="774.0" type="line"/>
      <point x="149.0" y="913.0" type="line"/>
    </contour>
  </outline>
</glyph>
<glyph name="circumflex_grave" format="2">
  <advance width="429"/>
  <anchor x="194" y="564" name="_top"/>
  <outline>
    <contour>
      <point x="486.0" y="805.0" type="curve" smooth="yes"/>
      <point x="507.0" y="709.0" type="line"/>
      <point x="507.0" y="679.0" type="line"/>
      <point x="441.0" y="679.0" type="line"/>
      <point x="382.0" y="728.0" type="line" smooth="yes"/>
      <point x="329.0" y="759.0"/>
      <point x="306.0" y="793.0"/>
      <point x="306.0" y="834.0" type="curve" smooth="yes"/>
      <point x="306.0" y="873.0"/>
      <point x="337.0" y="903.0"/>
      <point x="384.0" y="903.0" type="curve" smooth="yes"/>
      <point x="443.0" y="903.0"/>
      <point x="468.0" y="866.0"/>
    </contour>
    <component base="circumflex"/>
  </outline>
</glyph>
<glyph name="circumflex_tilde.uc" format="2">
  <advance width="421"/>
  <anchor x="201" y="694" name="_top"/>
  <outline>
    <contour>
      <point x="302.0" y="892.0" type="line"/>
      <point x="393.0" y="777.0" type="line"/>
      <point x="393.0" y="749.0" type="line"/>
      <point x="286.0" y="749.0" type="line"/>
      <point x="147.0" y="827.0" type="line"/>
      <point x="287.0" y="827.0" type="line"/>
      <point x="147.0" y="749.0" type="line"/>
      <point x="47.0" y="749.0" type="line"/>
      <point x="47.0" y="777.0" type="line"/>
      <point x="139.0" y="892.0" type="line"/>
    </contour>
    <contour>
      <point x="274.0" y="923.0" type="curve" smooth="yes"/>
      <point x="340.0" y="923.0"/>
      <point x="380.0" y="969.0"/>
      <point x="396.0" y="1052.0" type="curve"/>
      <point x="313.0" y="1082.0" type="line"/>
      <point x="304.0" y="1052.0"/>
      <point x="296.0" y="1036.0"/>
      <point x="277.0" y="1036.0" type="curve" smooth="yes"/>
      <point x="246.0" y="1036.0"/>
      <point x="229.0" y="1081.0"/>
      <point x="164.0" y="1081.0" type="curve" smooth="yes"/>
      <point x="93.0" y="1081.0"/>
      <point x="59.0" y="1035.0"/>
      <point x="43.0" y="952.0" type="curve"/>
      <point x="128.0" y="924.0" type="line"/>
      <point x="133.0" y="955.0"/>
      <point x="143.0" y="969.0"/>
      <point x="161.0" y="969.0" type="curve" smooth="yes"/>
      <point x="187.0" y="969.0"/>
      <point x="206.0" y="923.0"/>
    </contour>
  </outline>
</glyph>
<glyph name="currency.proportional" format="2">
  <advance width="487"/>
  <outline>
    <contour>
      <point x="291.0" y="373.0" type="curve" smooth="yes"/>
      <point x="291.0" y="324.0"/>
      <point x="273.0" y="291.0"/>
      <point x="243.0" y="291.0" type="curve" smooth="yes"/>
      <point x="213.0" y="291.0"/>
      <point x="197.0" y="324.0"/>
      <point x="197.0" y="373.0" type="curve" smooth="yes"/>
      <point x="197.0" y="421.0"/>
      <point x="213.0" y="455.0"/>
      <point x="243.0" y="455.0" type="curve" smooth="yes"/>
      <point x="273.0" y="455.0"/>
      <point x="291.0" y="421.0"/>
    </contour>
    <contour>
      <point x="53.0" y="373.0" type="curve" smooth="yes"/>
      <point x="53.0" y="245.0"/>
      <point x="136.0" y="153.0"/>
      <point x="243.0" y="153.0" type="curve" smooth="yes"/>
      <point x="353.0" y="153.0"/>
      <point x="434.0" y="245.0"/>
      <point x="434.0" y="373.0" type="curve" smooth="yes"/>
      <point x="434.0" y="501.0"/>
      <point x="353.0" y="593.0"/>
      <point x="243.0" y="593.0" type="curve" smooth="yes"/>
      <point x="136.0" y="593.0"/>
      <point x="53.0" y="501.0"/>
    </contour>
    <contour>
      <point x="13.0" y="565.0" type="line"/>
      <point x="106.0" y="456.0" type="line"/>
      <point x="202.0" y="539.0" type="line"/>
      <point x="102.0" y="655.0" type="line"/>
    </contour>
    <contour>
      <point x="475.0" y="565.0" type="line"/>
      <point x="386.0" y="655.0" type="line"/>
      <point x="286.0" y="539.0" type="line"/>
      <point x="381.0" y="456.0" type="line"/>
    </contour>
    <contour>
      <point x="13.0" y="181.0" type="line"/>
      <point x="102.0" y="91.0" type="line"/>
      <point x="202.0" y="207.0" type="line"/>
      <point x="106.0" y="290.0" type="line"/>
    </contour>
    <contour>
      <point x="475.0" y="181.0" type="line"/>
      <point x="381.0" y="290.0" type="line"/>
      <point x="286.0" y="207.0" type="line"/>
      <point x="386.0" y="91.0" type="line"/>
    </contour>
  </outline>
</glyph>
<glyph name="dollar.proportional" format="2">
  <advance width="521"/>
  <outline>
    <contour>
      <point x="210.0" y="790.0" type="line"/>
      <point x="210.0" y="645.0" type="line"/>
      <point x="225.0" y="627.0" type="line"/>
      <point x="225.0" y="79.0" type="line"/>
      <point x="210.0" y="57.0" type="line"/>
      <point x="210.0" y="-120.0" type="line"/>
      <point x="311.0" y="-120.0" type="line"/>
      <point x="311.0" y="56.0" type="line"/>
      <point x="296.0" y="81.0" type="line"/>
      <point x="296.0" y="633.0" type="line"/>
      <point x="311.0" y="652.0" type="line"/>
      <point x="311.0" y="790.0" type="line"/>
    </contour>
    <contour>
      <point x="255.0" y="100.0" type="curve" smooth="yes"/>
      <point x="184.0" y="100.0"/>
      <point x="127.0" y="136.0"/>
      <point x="100.0" y="171.0" type="curve"/>
      <point x="90.0" y="168.0"/>
      <point x="123.0" y="107.0"/>
      <point x="155.0" y="109.0" type="curve"/>
      <point x="155.0" y="218.0" type="line"/>
      <point x="18.0" y="218.0" type="line"/>
      <point x="18.0" y="85.0" type="line"/>
      <point x="54.0" y="50.0"/>
      <point x="137.0" y="12.0"/>
      <point x="258.0" y="12.0" type="curve" smooth="yes"/>
      <point x="414.0" y="12.0"/>
      <point x="504.0" y="89.0"/>
      <point x="504.0" y="241.0" type="curve" smooth="yes"/>
      <point x="504.0" y="369.0"/>
      <point x="424.0" y="422.0"/>
      <point x="280.0" y="465.0" type="curve" smooth="yes"/>
      <point x="223.0" y="486.0"/>
      <point x="176.0" y="494.0"/>
      <point x="176.0" y="547.0" type="curve"/>
      <point x="176.0" y="590.0"/>
      <point x="204.0" y="611.0"/>
      <point x="260.0" y="611.0" type="curve" smooth="yes"/>
      <point x="312.0" y="611.0"/>
      <point x="355.0" y="595.0"/>
      <point x="389.0" y="561.0" type="curve"/>
      <point x="400.0" y="573.0"/>
      <point x="386.0" y="621.0"/>
      <point x="351.0" y="618.0" type="curve"/>
      <point x="351.0" y="518.0" type="line"/>
      <point x="477.0" y="518.0" type="line"/>
      <point x="477.0" y="637.0" type="line"/>
      <point x="445.0" y="666.0"/>
      <point x="357.0" y="698.0"/>
      <point x="261.0" y="698.0" type="curve" smooth="yes"/>
      <point x="121.0" y="698.0"/>
      <point x="24.0" y="626.0"/>
      <point x="24.0" y="495.0" type="curve" smooth="yes"/>
      <point x="24.0" y="366.0"/>
      <point x="105.0" y="310.0"/>
      <point x="223.0" y="272.0" type="curve" smooth="yes"/>
      <point x="312.0" y="243.0"/>
      <point x="345.0" y="232.0"/>
      <point x="345.0" y="173.0" type="curve" smooth="yes"/>
      <point x="345.0" y="120.0"/>
      <point x="313.0" y="100.0"/>
    </contour>
  </outline>
</glyph>
<glyph name="eight.midprop" format="2">
  <advance width="558"/>
  <outline>
    <contour>
      <point x="279.0" y="84.0" type="curve" smooth="yes"/>
      <point x="256.0" y="84.0"/>
      <point x="236.0" y="122.0"/>
      <point x="236.0" y="207.0" type="curve" smooth="yes"/>
      <point x="236.0" y="298.0"/>
      <point x="255.0" y="332.0"/>
      <point x="279.0" y="332.0" type="curve" smooth="yes"/>
      <point x="303.0" y="332.0"/>
      <point x="322.0" y="298.0"/>
      <point x="322.0" y="207.0" type="curve" smooth="yes"/>
      <point x="322.0" y="122.0"/>
      <point x="302.0" y="84.0"/>
    </contour>
    <contour>
      <point x="279.0" y="420.0" type="curve" smooth="yes"/>
      <point x="255.0" y="420.0"/>
      <point x="242.0" y="447.0"/>
      <point x="242.0" y="524.0" type="curve" smooth="yes"/>
      <point x="242.0" y="598.0"/>
      <point x="255.0" y="626.0"/>
      <point x="279.0" y="626.0" type="curve" smooth="yes"/>
      <point x="303.0" y="626.0"/>
      <point x="316.0" y="598.0"/>
      <point x="316.0" y="524.0" type="curve" smooth="yes"/>
      <point x="316.0" y="447.0"/>
      <point x="303.0" y="420.0"/>
    </contour>
    <contour>
      <point x="279.0" y="720.0" type="curve" smooth="yes"/>
      <point x="134.0" y="720.0"/>
      <point x="45.0" y="645.0"/>
      <point x="45.0" y="539.0" type="curve" smooth="yes"/>
      <point x="45.0" y="445.0"/>
      <point x="111.0" y="383.0"/>
      <point x="217.0" y="365.0" type="curve"/>
      <point x="186.0" y="395.0" type="line"/>
      <point x="186.0" y="359.0" type="line"/>
      <point x="217.0" y="392.0" type="line"/>
      <point x="102.0" y="374.0"/>
      <point x="20.0" y="308.0"/>
      <point x="20.0" y="201.0" type="curve" smooth="yes"/>
      <point x="20.0" y="75.0"/>
      <point x="118.0" y="-10.0"/>
      <point x="279.0" y="-10.0" type="curve" smooth="yes"/>
      <point x="439.0" y="-10.0"/>
      <point x="538.0" y="75.0"/>
      <point x="538.0" y="201.0" type="curve" smooth="yes"/>
      <point x="538.0" y="308.0"/>
      <point x="456.0" y="374.0"/>
      <point x="341.0" y="392.0" type="curve"/>
      <point x="372.0" y="359.0" type="line"/>
      <point x="372.0" y="395.0" type="line"/>
      <point x="341.0" y="365.0" type="line"/>
      <point x="446.0" y="383.0"/>
      <point x="513.0" y="445.0"/>
      <point x="513.0" y="539.0" type="curve" smooth="yes"/>
      <point x="513.0" y="645.0"/>
      <point x="423.0" y="720.0"/>
    </contour>
  </outline>
</glyph>
<glyph name="f_f_j.alt" format="2">
  <advance width="899"/>
  <outline>
    <contour>
      <point x="9.0" y="0.0" type="line"/>
      <point x="302.0" y="0.0" type="line"/>
      <point x="302.0" y="72.0" type="line"/>
      <point x="300.0" y="72.0" type="line" smooth="yes"/>
      <point x="285.0" y="72.0"/>
      <point x="279.0" y="74.0"/>
      <point x="279.0" y="80.0" type="curve"/>
      <point x="279.0" y="552.0" type="line" smooth="yes"/>
      <point x="279.0" y="628.0"/>
      <point x="288.0" y="660.0"/>
      <point x="329.0" y="660.0" type="curve" smooth="yes"/>
      <point x="353.0" y="660.0"/>
      <point x="365.0" y="644.0"/>
      <point x="364.0" y="630.0" type="curve"/>
      <point x="387.0" y="635.0"/>
      <point x="386.0" y="684.0"/>
      <point x="349.0" y="683.0" type="curve"/>
      <point x="349.0" y="526.0" type="line"/>
      <point x="500.0" y="576.0" type="line"/>
      <point x="500.0" y="685.0" type="line"/>
      <point x="464.0" y="712.0"/>
      <point x="406.0" y="745.0"/>
      <point x="302.0" y="745.0" type="curve" smooth="yes"/>
      <point x="152.0" y="745.0"/>
      <point x="48.0" y="689.0"/>
      <point x="48.0" y="540.0" type="curve" smooth="yes"/>
      <point x="48.0" y="102.0" type="line" smooth="yes"/>
      <point x="48.0" y="81.0"/>
      <point x="38.0" y="72.0"/>
      <point x="19.0" y="72.0" type="curve" smooth="yes"/>
      <point x="9.0" y="72.0" type="line"/>
    </contour>
    <contour>
      <point x="349.0" y="80.0" type="line" smooth="yes"/>
      <point x="349.0" y="74.0"/>
      <point x="337.0" y="72.0"/>
      <point x="336.0" y="72.0" type="curve" smooth="yes"/>
      <point x="334.0" y="72.0" type="line"/>
      <point x="334.0" y="0.0" type="line"/>
      <point x="600.0" y="0.0" type="line"/>
      <point x="600.0" y="72.0" type="line"/>
      <point x="600.0" y="72.0" type="line" smooth="yes"/>
      <point x="586.0" y="72.0"/>
      <point x="579.0" y="74.0"/>
      <point x="579.0" y="80.0" type="curve" smooth="yes"/>
      <point x="579.0" y="555.0" type="line" smooth="yes"/>
      <point x="579.0" y="631.0"/>
      <point x="594.0" y="663.0"/>
      <point x="644.0" y="663.0" type="curve" smooth="yes"/>
      <point x="675.0" y="663.0"/>
      <point x="689.0" y="645.0"/>
      <point x="690.0" y="632.0" type="curve"/>
      <point x="714.0" y="636.0"/>
      <point x="713.0" y="687.0"/>
      <point x="674.0" y="689.0" type="curve"/>
      <point x="674.0" y="579.0" type="line"/>
      <point x="856.0" y="579.0" type="line"/>
      <point x="856.0" y="704.0" type="line"/>
      <point x="815.0" y="723.0"/>
      <point x="735.0" y="748.0"/>
      <point x="631.0" y="748.0" type="curve" smooth="yes"/>
      <point x="475.0" y="748.0"/>
      <point x="349.0" y="692.0"/>
      <point x="349.0" y="543.0" type="curve" smooth="yes"/>
    </contour>
    <contour>
      <point x="649.0" y="-27.0" type="line" smooth="yes"/>
      <point x="649.0" y="-117.0"/>
      <point x="635.0" y="-146.0"/>
      <point x="600.0" y="-146.0" type="curve" smooth="yes"/>
      <point x="575.0" y="-146.0"/>
      <point x="555.0" y="-136.0"/>
      <point x="538.0" y="-128.0" type="curve"/>
      <point x="538.0" y="-221.0" type="line"/>
      <point x="551.0" y="-228.0"/>
      <point x="595.0" y="-236.0"/>
      <point x="649.0" y="-236.0" type="curve" smooth="yes"/>
      <point x="815.0" y="-236.0"/>
      <point x="880.0" y="-173.0"/>
      <point x="880.0" y="0.0" type="curve" smooth="yes"/>
      <point x="880.0" y="513.0" type="line"/>
      <point x="619.0" y="513.0" type="line"/>
      <point x="619.0" y="432.0" type="line"/>
      <point x="634.0" y="432.0" type="line" smooth="yes"/>
      <point x="646.0" y="432.0"/>
      <point x="649.0" y="421.0"/>
      <point x="649.0" y="403.0" type="curve" smooth="yes"/>
    </contour>
    <contour>
      <point x="-6.0" y="513.0" type="line"/>
      <point x="-6.0" y="432.0" type="line"/>
      <point x="355.0" y="432.0" type="line"/>
      <point x="355.0" y="513.0" type="line"/>
    </contour>
    <contour>
      <point x="294.0" y="513.0" type="line"/>
      <point x="294.0" y="432.0" type="line"/>
      <point x="652.0" y="432.0" type="line"/>
      <point x="652.0" y="513.0" type="line"/>
    </contour>
  </outline>
</glyph>
<glyph name="f_i" format="2">
  <advance width="609"/>
  <outline>
    <contour>
      <point x="-6.0" y="513.0" type="line"/>
      <point x="-6.0" y="432.0" type="line"/>
      <point x="351.0" y="432.0" type="line"/>
      <point x="351.0" y="513.0" type="line"/>
    </contour>
    <contour>
      <point x="464.0" y="565.0" type="curve" smooth="yes"/>
      <point x="538.0" y="565.0"/>
      <point x="579.0" y="599.0"/>
      <point x="579.0" y="657.0" type="curve" smooth="yes"/>
      <point x="579.0" y="714.0"/>
      <point x="538.0" y="749.0"/>
      <point x="464.0" y="749.0" type="curve" smooth="yes"/>
      <point x="391.0" y="749.0"/>
      <point x="349.0" y="714.0"/>
      <point x="349.0" y="657.0" type="curve" smooth="yes"/>
      <point x="349.0" y="598.0"/>
      <point x="391.0" y="565.0"/>
    </contour>
    <contour>
      <point x="331.0" y="0.0" type="line"/>
      <point x="601.0" y="0.0" type="line"/>
      <point x="601.0" y="72.0" type="line"/>
      <point x="600.0" y="72.0" type="line" smooth="yes"/>
      <point x="590.0" y="72.0"/>
      <point x="581.0" y="78.0"/>
      <point x="581.0" y="99.0" type="curve" smooth="yes"/>
      <point x="581.0" y="513.0" type="line"/>
      <point x="328.0" y="513.0" type="line"/>
      <point x="328.0" y="432.0" type="line"/>
      <point x="334.0" y="432.0" type="line" smooth="yes"/>
      <point x="346.0" y="432.0"/>
      <point x="349.0" y="421.0"/>
      <point x="349.0" y="403.0" type="curve"/>
      <point x="349.0" y="80.0" type="line"/>
      <point x="349.0" y="74.0"/>
      <point x="339.0" y="72.0"/>
      <point x="334.0" y="72.0" type="curve" smooth="yes"/>
      <point x="331.0" y="72.0" type="line"/>
    </contour>
    <contour>
      <point x="300.0" y="0.0" type="line"/>
      <point x="300.0" y="72.0" type="line"/>
      <point x="299.0" y="72.0" type="line" smooth="yes"/>
      <point x="285.0" y="72.0"/>
      <point x="279.0" y="74.0"/>
      <point x="279.0" y="80.0" type="curve"/>
      <point x="279.0" y="586.0" type="line" smooth="yes"/>
      <point x="279.0" y="643.0"/>
      <point x="288.0" y="659.0"/>
      <point x="309.0" y="659.0" type="curve" smooth="yes"/>
      <point x="318.0" y="659.0"/>
      <point x="332.0" y="653.0"/>
      <point x="330.0" y="651.0" type="curve"/>
      <point x="330.0" y="735.0" type="line"/>
      <point x="320.0" y="741.0"/>
      <point x="291.0" y="748.0"/>
      <point x="251.0" y="748.0" type="curve" smooth="yes"/>
      <point x="139.0" y="748.0"/>
      <point x="48.0" y="695.0"/>
      <point x="48.0" y="543.0" type="curve" smooth="yes"/>
      <point x="48.0" y="102.0" type="line" smooth="yes"/>
      <point x="48.0" y="81.0"/>
      <point x="38.0" y="72.0"/>
      <point x="19.0" y="72.0" type="curve" smooth="yes"/>
      <point x="9.0" y="72.0" type="line"/>
      <point x="9.0" y="0.0" type="line"/>
    </contour>
  </outline>
</glyph>
<glyph name="f_j" format="2">
  <advance width="599"/>
  <outline>
    <contour>
      <point x="463.0" y="565.0" type="curve" smooth="yes"/>
      <point x="535.0" y="565.0"/>
      <point x="577.0" y="599.0"/>
      <point x="577.0" y="657.0" type="curve" smooth="yes"/>
      <point x="577.0" y="714.0"/>
      <point x="535.0" y="749.0"/>
      <point x="463.0" y="749.0" type="curve" smooth="yes"/>
      <point x="389.0" y="749.0"/>
      <point x="348.0" y="714.0"/>
      <point x="348.0" y="657.0" type="curve" smooth="yes"/>
      <point x="348.0" y="598.0"/>
      <point x="389.0" y="565.0"/>
    </contour>
    <contour>
      <point x="-6.0" y="432.0" type="line"/>
      <point x="351.0" y="432.0" type="line"/>
      <point x="351.0" y="513.0" type="line"/>
      <point x="-6.0" y="513.0" type="line"/>
    </contour>
    <contour>
      <point x="348.0" y="-236.0" type="curve" smooth="yes"/>
      <point x="514.0" y="-236.0"/>
      <point x="579.0" y="-173.0"/>
      <point x="579.0" y="0.0" type="curve" smooth="yes"/>
      <point x="579.0" y="513.0" type="line"/>
      <point x="318.0" y="513.0" type="line"/>
      <point x="318.0" y="432.0" type="line"/>
      <point x="334.0" y="432.0" type="line" smooth="yes"/>
      <point x="346.0" y="432.0"/>
      <point x="349.0" y="421.0"/>
      <point x="349.0" y="403.0" type="curve" smooth="yes"/>
      <point x="349.0" y="-27.0" type="line" smooth="yes"/>
      <point x="349.0" y="-117.0"/>
      <point x="334.0" y="-146.0"/>
      <point x="300.0" y="-146.0" type="curve" smooth="yes"/>
      <point x="274.0" y="-146.0"/>
      <point x="254.0" y="-136.0"/>
      <point x="238.0" y="-128.0" type="curve"/>
      <point x="238.0" y="-221.0" type="line"/>
      <point x="250.0" y="-228.0"/>
      <point x="294.0" y="-236.0"/>
    </contour>
    <contour>
      <point x="297.0" y="0.0" type="line"/>
      <point x="297.0" y="72.0" type="line"/>
      <point x="293.0" y="72.0" type="line" smooth="yes"/>
      <point x="288.0" y="72.0"/>
      <point x="279.0" y="74.0"/>
      <point x="279.0" y="80.0" type="curve" smooth="yes"/>
      <point x="279.0" y="586.0" type="line" smooth="yes"/>
      <point x="279.0" y="643.0"/>
      <point x="288.0" y="659.0"/>
      <point x="309.0" y="659.0" type="curve" smooth="yes"/>
      <point x="318.0" y="659.0"/>
      <point x="332.0" y="653.0"/>
      <point x="330.0" y="651.0" type="curve"/>
      <point x="330.0" y="735.0" type="line"/>
      <point x="320.0" y="741.0"/>
      <point x="291.0" y="748.0"/>
      <point x="251.0" y="748.0" type="curve" smooth="yes"/>
      <point x="139.0" y="748.0"/>
      <point x="48.0" y="695.0"/>
      <point x="48.0" y="543.0" type="curve" smooth="yes"/>
      <point x="48.0" y="102.0" type="line" smooth="yes"/>
      <point x="48.0" y="81.0"/>
      <point x="38.0" y="72.0"/>
      <point x="19.0" y="72.0" type="curve" smooth="yes"/>
      <point x="9.0" y="72.0" type="line"/>
      <point x="9.0" y="0.0" type="line"/>
    </contour>
  </outline>
</glyph>
<glyph name="five.oldprop" format="2">
  <advance width="515"/>
  <outline>
    <contour>
      <point x="251.0" y="-151.0" type="curve" smooth="yes"/>
      <point x="120.0" y="-151.0"/>
      <point x="50.0" y="-80.0"/>
      <point x="19.0" y="11.0" type="curve"/>
      <point x="105.0" y="66.0" type="line"/>
      <point x="122.0" y="13.0"/>
      <point x="157.0" y="-56.0"/>
      <point x="213.0" y="-56.0" type="curve" smooth="yes"/>
      <point x="262.0" y="-56.0"/>
      <point x="283.0" y="-4.0"/>
      <point x="283.0" y="91.0" type="curve" smooth="yes"/>
      <point x="283.0" y="171.0"/>
      <point x="265.0" y="217.0"/>
      <point x="222.0" y="217.0" type="curve" smooth="yes"/>
      <point x="185.0" y="217.0"/>
      <point x="163.0" y="190.0"/>
      <point x="153.0" y="146.0" type="curve"/>
      <point x="66.0" y="146.0" type="line"/>
      <point x="66.0" y="548.0" type="line"/>
      <point x="451.0" y="548.0" type="line"/>
      <point x="439.0" y="400.0" type="line"/>
      <point x="149.0" y="400.0" type="line"/>
      <point x="160.0" y="528.0" type="line"/>
      <point x="160.0" y="215.0" type="line"/>
      <point x="156.0" y="202.0"/>
      <point x="146.0" y="197.0"/>
      <point x="136.0" y="208.0" type="curve"/>
      <point x="165.0" y="263.0"/>
      <point x="204.0" y="305.0"/>
      <point x="298.0" y="305.0" type="curve" smooth="yes"/>
      <point x="422.0" y="305.0"/>
      <point x="492.0" y="211.0"/>
      <point x="492.0" y="90.0" type="curve" smooth="yes"/>
      <point x="492.0" y="-57.0"/>
      <point x="400.0" y="-151.0"/>
    </contour>
  </outline>
</glyph>
<glyph name="four.oldtab" format="2">
  <advance width="471"/>
  <outline>
    <contour>
      <point x="16.0" y="8.0" type="line"/>
      <point x="469.0" y="8.0" type="line"/>
      <point x="469.0" y="151.0" type="line"/>
      <point x="101.0" y="151.0" type="line"/>
      <point x="66.0" y="73.0" type="line"/>
      <point x="245.0" y="471.0" type="line"/>
      <point x="260.0" y="548.0" type="line"/>
      <point x="201.0" y="548.0" type="line"/>
      <point x="16.0" y="152.0" type="line"/>
    </contour>
    <contour>
      <point x="427.0" y="-146.0" type="line"/>
      <point x="427.0" y="548.0" type="line"/>
      <point x="232.0" y="548.0" type="line"/>
      <point x="216.0" y="459.0" type="line"/>
      <point x="216.0" y="-146.0" type="line"/>
    </contour>
  </outline>
</glyph>
<glyph name="seven.oldtab" format="2">
  <advance width="472"/>
  <outline>
    <contour>
      <point x="187.0" y="400.0" type="line" smooth="yes"/>
      <point x="139.0" y="400.0"/>
      <point x="122.0" y="393.0"/>
      <point x="119.0" y="357.0" type="curve" smooth="yes"/>
      <point x="113.0" y="282.0" type="line"/>
      <point x="41.0" y="282.0" type="line"/>
      <point x="41.0" y="548.0" type="line"/>
      <point x="456.0" y="548.0" type="line"/>
      <point x="456.0" y="414.0" type="line"/>
      <point x="373.0" y="269.0"/>
      <point x="329.0" y="169.0"/>
      <point x="326.0" y="-138.0" type="curve"/>
      <point x="120.0" y="-138.0" type="line"/>
      <point x="137.0" y="154.0"/>
      <point x="313.0" y="350.0"/>
      <point x="395.0" y="435.0" type="curve"/>
      <point x="420.0" y="400.0" type="line"/>
    </contour>
  </outline>
</glyph>
<glyph name="three.midprop" format="2">
  <advance width="533"/>
  <outline>
    <contour>
      <point x="229.0" y="294.0" type="line"/>
      <point x="424.0" y="294.0"/>
      <point x="510.0" y="226.0"/>
      <point x="510.0" y="113.0" type="curve" smooth="yes"/>
      <point x="510.0" y="-21.0"/>
      <point x="395.0" y="-90.0"/>
      <point x="258.0" y="-90.0" type="curve" smooth="yes"/>
      <point x="103.0" y="-90.0"/>
      <point x="46.0" y="-15.0"/>
      <point x="18.0" y="78.0" type="curve"/>
      <point x="103.0" y="127.0" type="line"/>
      <point x="119.0" y="76.0"/>
      <point x="146.0" y="4.0"/>
      <point x="216.0" y="4.0" type="curve" smooth="yes"/>
      <point x="269.0" y="4.0"/>
      <point x="300.0" y="44.0"/>
      <point x="300.0" y="121.0" type="curve" smooth="yes"/>
      <point x="300.0" y="189.0"/>
      <point x="291.0" y="239.0"/>
      <point x="219.0" y="239.0" type="curve" smooth="yes"/>
      <point x="168.0" y="239.0" type="line"/>
      <point x="168.0" y="325.0" type="line"/>
      <point x="203.0" y="325.0" type="line" smooth="yes"/>
      <point x="267.0" y="325.0"/>
      <point x="294.0" y="363.0"/>
      <point x="294.0" y="447.0" type="curve" smooth="yes"/>
      <point x="294.0" y="504.0"/>
      <point x="274.0" y="528.0"/>
      <point x="254.0" y="528.0" type="curve" smooth="yes"/>
      <point x="237.0" y="528.0"/>
      <point x="214.0" y="508.0"/>
      <point x="205.0" y="483.0" type="curve"/>
      <point x="200.0" y="490.0"/>
      <point x="198.0" y="536.0"/>
      <point x="226.0" y="539.0" type="curve"/>
      <point x="226.0" y="424.0" type="line"/>
      <point x="67.0" y="424.0" type="line"/>
      <point x="67.0" y="543.0" type="line"/>
      <point x="106.0" y="582.0"/>
      <point x="186.0" y="618.0"/>
      <point x="278.0" y="618.0" type="curve" smooth="yes"/>
      <point x="389.0" y="618.0"/>
      <point x="498.0" y="566.0"/>
      <point x="498.0" y="450.0" type="curve" smooth="yes"/>
      <point x="498.0" y="329.0"/>
      <point x="362.0" y="275.0"/>
      <point x="208.0" y="275.0" type="curve"/>
      <point x="276.0" y="307.0" type="line"/>
      <point x="276.0" y="264.0" type="line"/>
    </contour>
  </outline>
</glyph>
<glyph name="tilde.uc" format="2">
  <advance width="421"/>
  <anchor x="210" y="694" name="_top"/>
  <outline>
    <contour>
      <point x="266.0" y="752.0" type="curve" smooth="yes"/>
      <point x="329.0" y="752.0"/>
      <point x="367.0" y="810.0"/>
      <point x="384.0" y="899.0" type="curve"/>
      <point x="301.0" y="929.0" type="line"/>
      <point x="294.0" y="898.0"/>
      <point x="284.0" y="882.0"/>
      <point x="267.0" y="882.0" type="curve" smooth="yes"/>
      <point x="237.0" y="882.0"/>
      <point x="220.0" y="925.0"/>
      <point x="157.0" y="925.0" type="curve" smooth="yes"/>
      <point x="89.0" y="925.0"/>
      <point x="56.0" y="870.0"/>
      <point x="40.0" y="778.0" type="curve"/>
      <point x="124.0" y="750.0" type="line"/>
      <point x="129.0" y="782.0"/>
      <point x="139.0" y="797.0"/>
      <point x="156.0" y="797.0" type="curve" smooth="yes"/>
      <point x="180.0" y="797.0"/>
      <point x="198.0" y="752.0"/>
    </contour>
  </outline>
</glyph>
<glyph name="zero.slashlin" format="2">
  <advance width="471"/>
  <outline>
    <contour>
      <point x="144.0" y="184.0" type="line"/>
      <point x="324.0" y="420.0" type="line"/>
      <point x="327.0" y="524.0" type="line"/>
      <point x="149.0" y="288.0" type="line"/>
    </contour>
    <contour>
      <point x="235.0" y="-11.0" type="curve" smooth="yes"/>
      <point x="369.0" y="-11.0"/>
      <point x="465.0" y="128.0"/>
      <point x="465.0" y="354.0" type="curve" smooth="yes"/>
      <point x="465.0" y="582.0"/>
      <point x="369.0" y="720.0"/>
      <point x="235.0" y="720.0" type="curve" smooth="yes"/>
      <point x="102.0" y="720.0"/>
      <point x="6.0" y="582.0"/>
      <point x="6.0" y="354.0" type="curve" smooth="yes"/>
      <point x="6.0" y="128.0"/>
      <point x="102.0" y="-11.0"/>
    </contour>
    <contour>
      <point x="235.0" y="79.0" type="curve" smooth="yes"/>
      <point x="213.0" y="79.0"/>
      <point x="212.0" y="131.0"/>
      <point x="212.0" y="354.0" type="curve" smooth="yes"/>
      <point x="212.0" y="581.0"/>
      <point x="213.0" y="630.0"/>
      <point x="235.0" y="630.0" type="curve" smooth="yes"/>
      <point x="260.0" y="630.0"/>
      <point x="259.0" y="581.0"/>
      <point x="259.0" y="354.0" type="curve" smooth="yes"/>
      <point x="259.0" y="131.0"/>
      <point x="258.0" y="79.0"/>
    </contour>
  </outline>
</glyph>
<glyph name="zero.slashlinprop" format="2">
  <advance width="550"/>
  <outline>
    <contour>
      <point x="188.0" y="183.0" type="line"/>
      <point x="361.0" y="423.0" type="line"/>
      <point x="365.0" y="527.0" type="line"/>
      <point x="186.0" y="287.0" type="line"/>
    </contour>
    <contour>
      <point x="275.0" y="-11.0" type="curve" smooth="yes"/>
      <point x="412.0" y="-11.0"/>
      <point x="528.0" y="128.0"/>
      <point x="528.0" y="354.0" type="curve" smooth="yes"/>
      <point x="528.0" y="581.0"/>
      <point x="412.0" y="720.0"/>
      <point x="275.0" y="720.0" type="curve" smooth="yes"/>
      <point x="138.0" y="720.0"/>
      <point x="23.0" y="581.0"/>
      <point x="23.0" y="354.0" type="curve" smooth="yes"/>
      <point x="23.0" y="128.0"/>
      <point x="138.0" y="-11.0"/>
    </contour>
    <contour>
      <point x="275.0" y="79.0" type="curve" smooth="yes"/>
      <point x="247.0" y="79.0"/>
      <point x="233.0" y="134.0"/>
      <point x="233.0" y="354.0" type="curve" smooth="yes"/>
      <point x="233.0" y="575.0"/>
      <point x="247.0" y="630.0"/>
      <point x="275.0" y="630.0" type="curve" smooth="yes"/>
      <point x="304.0" y="630.0"/>
      <point x="318.0" y="575.0"/>
      <point x="318.0" y="354.0" type="curve" smooth="yes"/>
      <point x="318.0" y="134.0"/>
      <point x="304.0" y="79.0"/>
    </contour>
  </outline>
</glyph>
